<?xml version="1.0" standalone="no"?>
<!DOCTYPE svg PUBLIC "-//W3C//DTD SVG 20010904//EN"
 "http://www.w3.org/TR/2001/REC-SVG-20010904/DTD/svg10.dtd">
<svg version="1.0" xmlns="http://www.w3.org/2000/svg"
 width="300.000000pt" height="116.000000pt" viewBox="0 0 300.000000 116.000000"
 preserveAspectRatio="xMidYMid meet">
<metadata>
Created by potrace 1.10, written by Peter Selinger 2001-2011
</metadata>
<g transform="translate(0.000000,116.000000) scale(0.100000,-0.100000)"
fill="#000000" stroke="none">
<path d="M330 745 c0 -2 22 -41 48 -86 l49 -82 -48 -81 -48 -81 57 -3 c64 -4
65 -3 121 102 l34 64 -48 84 -47 83 -59 2 c-33 1 -59 0 -59 -2z m86 -41 c13
-19 19 -22 25 -12 5 8 8 2 6 -17 -2 -25 1 -29 17 -27 16 3 18 1 8 -10 -9 -11
-7 -22 9 -47 20 -33 19 -98 -2 -85 -5 3 -9 -2 -9 -10 0 -19 -56 -83 -65 -75
-3 4 8 29 24 57 17 29 26 54 21 57 -6 4 -10 16 -10 28 0 22 -21 68 -62 135
l-20 32 21 0 c11 0 28 -12 37 -26z m85 -96 c11 -21 11 -22 -4 -9 -10 7 -17 17
-17 22 0 15 9 10 21 -13z m-80 -111 c-10 -9 -11 -8 -5 6 3 10 9 15 12 12 3 -3
0 -11 -7 -18z m-21 -38 c-7 -11 -14 -18 -17 -15 -3 3 0 12 7 21 18 21 23 19
10 -6z"/>
<path d="M744 706 c-69 -30 -99 -108 -68 -173 28 -57 78 -86 137 -80 27 2 56
12 68 23 25 22 49 74 49 104 0 18 -6 20 -65 20 -58 0 -65 -2 -65 -20 0 -17 7
-20 45 -20 51 0 56 -10 20 -45 -50 -51 -143 -22 -161 49 -8 34 12 83 42 103
22 14 46 14 118 1 31 -5 29 20 -3 36 -36 19 -76 20 -117 2z"/>
<path d="M1271 702 c-50 -25 -74 -63 -74 -116 0 -83 62 -140 146 -133 27 2 56
12 68 23 25 22 49 74 49 104 0 18 -6 20 -65 20 -58 0 -65 -2 -65 -20 0 -17 7
-20 45 -20 51 0 54 -6 24 -44 -16 -21 -29 -26 -63 -26 -75 0 -119 56 -96 125
20 61 51 72 154 53 31 -5 29 20 -3 36 -39 21 -78 20 -120 -2z"/>
<path d="M960 582 l0 -127 68 5 c77 6 106 22 127 66 19 40 19 65 1 108 -23 55
-59 76 -132 76 l-64 0 0 -128z m150 61 c46 -59 10 -140 -68 -150 l-42 -6 0 94
0 94 45 -3 c34 -3 50 -10 65 -29z"/>
<path d="M1590 575 c0 -108 2 -125 16 -125 14 0 15 13 12 95 -1 52 -2 95 -1
95 1 0 19 -32 39 -70 21 -39 42 -69 47 -67 5 1 24 31 42 65 18 35 35 65 37 67
3 3 4 -37 4 -88 -1 -70 2 -92 12 -92 10 0 13 27 13 118 0 64 -2 117 -5 117 -3
0 -10 0 -15 0 -6 0 -27 -31 -48 -70 -35 -64 -53 -85 -53 -61 0 19 -70 129 -85
135 -13 5 -15 -12 -15 -119z"/>
<path d="M2406 645 c5 -21 3 -25 -15 -25 -14 0 -19 -5 -15 -15 4 -8 13 -15 21
-15 13 0 15 -10 11 -51 -4 -42 -2 -55 13 -70 21 -21 59 -26 59 -8 0 6 -9 13
-20 16 -11 3 -20 8 -21 12 0 3 -2 27 -3 54 -1 43 0 47 21 47 14 0 23 6 23 15
0 9 -9 15 -25 15 -22 0 -25 3 -19 25 5 21 3 25 -15 25 -18 0 -20 -4 -15 -25z"/>
<path d="M2074 614 c-31 -17 -37 -17 -29 -4 3 6 -1 10 -9 10 -14 0 -16 -18
-16 -120 0 -103 2 -120 16 -120 13 0 15 9 12 49 -3 47 -2 48 17 35 30 -21 63
-17 90 12 31 33 33 82 5 116 -25 33 -52 39 -86 22z m54 -30 c26 -18 30 -65 6
-88 -18 -19 -55 -21 -72 -4 -17 17 -15 68 5 90 20 22 32 23 61 2z"/>
<path d="M1861 606 c-16 -19 3 -30 28 -16 27 14 37 13 55 -6 24 -24 19 -30
-19 -26 -69 8 -108 -45 -65 -88 24 -24 57 -26 82 -3 17 15 18 15 18 -1 0 -10
6 -16 13 -13 8 2 12 26 12 71 0 55 -4 70 -19 82 -25 18 -90 18 -105 0z m89
-76 c12 -7 12 -12 -4 -29 -23 -25 -64 -27 -73 -5 -12 31 43 55 77 34z"/>
<path d="M2210 545 c5 -79 14 -95 57 -95 12 0 29 7 37 16 13 12 16 13 16 1 0
-7 7 -14 15 -14 12 0 15 16 15 84 0 67 -3 83 -15 83 -11 0 -15 -13 -15 -53 0
-63 -16 -90 -51 -85 -22 3 -24 7 -27 71 -2 55 -6 67 -20 67 -15 0 -16 -9 -12
-75z"/>
<path d="M2532 613 c-22 -9 -44 -63 -37 -94 12 -55 85 -87 126 -56 67 51 40
158 -39 156 -20 0 -43 -3 -50 -6z m78 -33 c37 -37 14 -100 -36 -100 -25 0 -54
34 -54 62 0 22 34 58 55 58 8 0 24 -9 35 -20z"/>
</g>
</svg>
