<?xml version="1.0" standalone="no"?>
<!DOCTYPE svg PUBLIC "-//W3C//DTD SVG 20010904//EN"
 "http://www.w3.org/TR/2001/REC-SVG-20010904/DTD/svg10.dtd">
<svg version="1.0" xmlns="http://www.w3.org/2000/svg"
 width="300.000000pt" height="131.000000pt" viewBox="0 0 300.000000 131.000000"
 preserveAspectRatio="xMidYMid meet">
<metadata>
Created by potrace 1.10, written by Peter Selinger 2001-2011
</metadata>
<g transform="translate(0.000000,131.000000) scale(0.100000,-0.100000)"
fill="#000000" stroke="none">
<path d="M260 785 l0 -525 263 0 262 0 -3 522 c-1 287 -5 524 -7 527 -17 16
-20 -46 -18 -340 2 -285 0 -329 -13 -329 -8 0 -19 11 -24 25 -14 37 -52 52
-81 31 -33 -22 -39 -20 -34 12 3 22 -4 34 -39 64 l-43 38 -48 -43 c-43 -39
-46 -46 -36 -65 14 -26 12 -27 -33 -5 -34 16 -37 16 -56 -2 -11 -10 -22 -26
-25 -36 -4 -11 -14 -19 -23 -19 -16 0 -17 27 -15 335 2 287 0 335 -12 335 -13
0 -15 -73 -15 -525z m272 -48 c-2 -29 0 -38 7 -28 5 8 7 20 4 28 -7 17 7 16
30 -1 15 -12 16 -18 6 -39 -10 -22 -18 -26 -53 -25 -30 0 -45 6 -56 22 -17 24
-19 36 -6 35 5 0 12 5 17 13 7 11 10 10 21 -1 7 -8 9 -11 3 -9 -14 8 -38 -19
-25 -27 6 -3 10 -1 10 6 0 8 3 9 14 0 11 -9 13 -4 12 26 -2 41 2 58 12 48 3
-3 5 -25 4 -48z m-112 -78 c12 -9 11 -10 -6 -6 -13 3 -21 -1 -21 -9 0 -18 17
-18 44 1 20 14 23 14 32 -2 10 -17 10 -17 11 0 0 17 7 18 58 16 39 -3 62 -9
73 -22 16 -16 18 -16 33 -2 22 22 20 28 -6 19 -20 -6 -21 -5 -10 8 19 24 51
29 60 10 9 -19 9 -28 -1 -59 -10 -28 -50 -24 -76 8 l-20 24 -1 -32 c0 -27 4
-32 23 -31 52 3 77 -2 77 -17 0 -8 7 -15 15 -15 12 0 13 4 4 19 -7 10 -9 26
-6 35 7 19 51 23 44 4 -2 -7 -11 -12 -21 -10 -19 3 -20 -2 -3 -29 10 -17 9
-22 -7 -35 -11 -8 -15 -14 -9 -14 6 0 13 -14 15 -31 4 -27 2 -30 -21 -27 -14
2 -24 8 -23 13 2 6 8 9 13 8 5 -2 9 1 9 7 0 5 -11 12 -25 16 -20 5 -23 9 -14
20 9 11 8 18 -1 29 -18 22 -52 15 -66 -13 -7 -13 -25 -32 -41 -42 -25 -15 -33
-16 -54 -5 -13 7 -31 26 -40 42 -12 21 -23 28 -45 28 -25 0 -29 -4 -29 -27 1
-16 -4 -28 -11 -28 -6 0 -17 -7 -24 -15 -10 -12 -10 -15 4 -15 9 0 16 -4 16
-10 0 -5 -10 -10 -22 -10 -19 0 -23 6 -23 30 0 19 5 30 14 30 11 0 9 4 -5 14
-16 13 -17 18 -6 35 16 27 15 34 -2 28 -8 -3 -20 1 -28 10 -11 14 -9 15 20 11
18 -2 35 -1 38 4 3 4 0 8 -6 8 -8 0 -8 6 0 20 6 11 7 20 3 20 -4 0 -1 4 6 9
15 9 28 5 61 -20z m15 -140 c-5 -14 -3 -17 9 -13 10 4 16 1 16 -9 0 -13 -17
-16 -40 -7 -3 1 -8 2 -12 1 -4 0 -5 6 -1 15 3 9 0 20 -7 24 -7 4 -9 13 -6 19
12 19 48 -7 41 -30z m220 31 c3 -6 -1 -13 -10 -16 -10 -4 -13 -13 -9 -26 4
-14 2 -18 -5 -14 -6 4 -11 3 -11 -2 0 -6 -9 -8 -20 -5 -11 3 -17 9 -14 14 3 5
9 7 14 4 5 -3 11 -1 14 4 4 5 1 13 -4 16 -7 5 -5 12 7 21 22 16 30 17 38 4z
m102 -124 l2 -135 -37 -3 c-20 -2 -126 -2 -234 0 l-198 3 0 91 c0 76 2 89 14
79 8 -7 17 -22 20 -35 5 -19 14 -24 58 -29 38 -5 58 -2 75 8 30 20 112 19 134
-1 14 -12 29 -14 72 -9 49 6 55 10 65 39 7 18 12 43 12 57 0 21 10 69 14 69 0
0 2 -60 3 -134z m-460 82 c-3 -8 -6 -5 -6 6 -1 11 2 17 5 13 3 -3 4 -12 1 -19z
m333 -53 c0 -12 -19 -15 -110 -15 -91 0 -110 3 -110 15 0 12 19 15 110 15 91
0 110 -3 110 -15z m-217 -17 c41 -20 32 -28 -20 -21 -55 7 -57 8 -48 22 8 15
35 14 68 -1z m289 -5 c4 -15 -3 -18 -49 -20 -29 0 -53 3 -53 8 0 5 9 9 20 9
11 0 20 5 20 10 0 18 57 11 62 -7z"/>
<path d="M555 709 c-11 -16 -1 -19 13 -3 7 8 8 14 3 14 -5 0 -13 -5 -16 -11z"/>
<path d="M487 627 c-13 -20 -13 -24 -1 -24 8 0 12 2 9 5 -2 3 0 13 6 23 14 27
4 24 -14 -4z"/>
<path d="M445 630 c-4 -6 -11 -7 -17 -4 -7 5 -9 1 -5 -8 7 -21 -42 -36 -54
-16 -4 7 -9 10 -11 8 -19 -30 -28 -53 -23 -58 4 -4 13 2 21 12 9 14 27 19 59
20 42 1 45 3 45 29 0 28 -5 34 -15 17z"/>
<path d="M526 625 c4 -9 1 -15 -7 -15 -10 0 -10 -3 -2 -11 6 -6 16 -8 22 -5
16 10 13 46 -4 46 -9 0 -12 -6 -9 -15z"/>
<path d="M560 624 c0 -8 5 -12 10 -9 6 4 8 11 5 16 -9 14 -15 11 -15 -7z"/>
<path d="M550 593 c0 -5 5 -15 11 -23 9 -13 10 -13 6 2 -3 9 -1 19 6 22 7 2 4
5 -5 5 -10 1 -18 -2 -18 -6z"/>
<path d="M486 581 c-13 -5 -16 -10 -9 -14 7 -4 14 -3 18 3 10 15 25 12 32 -7
7 -20 28 -43 38 -43 11 0 -25 58 -40 64 -9 3 -17 6 -18 5 -1 0 -11 -4 -21 -8z"/>
<path d="M497 550 c-19 -23 -21 -30 -7 -30 10 0 34 39 28 46 -2 2 -12 -6 -21
-16z"/>
<path d="M521 514 c0 -11 3 -14 6 -6 3 7 2 16 -1 19 -3 4 -6 -2 -5 -13z"/>
<path d="M1247 730 c4 -14 0 -20 -10 -20 -21 0 -40 -36 -32 -60 4 -14 15 -20
36 -20 29 0 29 0 29 60 0 45 -4 60 -14 60 -9 0 -12 -7 -9 -20z m3 -60 c0 -16
-5 -30 -10 -30 -14 0 -24 26 -16 45 10 26 26 16 26 -15z"/>
<path d="M1634 735 c-12 -31 -9 -105 4 -105 9 0 12 10 10 30 -2 19 3 34 12 40
13 8 12 10 -3 10 -11 0 -17 5 -14 13 2 6 12 11 21 11 9 -1 16 2 16 7 0 15 -40
10 -46 -6z"/>
<path d="M1765 690 c0 -34 4 -60 10 -60 6 0 10 12 10 28 0 39 19 43 23 5 2
-19 9 -33 16 -33 9 0 11 10 7 38 -6 30 -11 37 -29 36 -17 0 -22 5 -22 23 0 13
-3 23 -7 23 -5 0 -8 -27 -8 -60z"/>
<path d="M2185 690 c0 -34 4 -60 10 -60 6 0 10 14 10 32 0 17 6 33 13 35 8 3
12 -7 12 -31 0 -23 5 -36 13 -36 10 0 12 10 8 38 -6 30 -11 37 -29 36 -17 0
-22 5 -22 23 0 13 -3 23 -7 23 -5 0 -8 -27 -8 -60z"/>
<path d="M2405 690 c0 -33 4 -60 10 -60 6 0 9 24 7 60 -5 78 -17 78 -17 0z"/>
<path d="M2647 730 c4 -14 0 -20 -11 -20 -9 0 -21 -11 -28 -25 -14 -30 3 -55
38 -55 23 0 24 3 24 60 0 45 -4 60 -14 60 -9 0 -12 -7 -9 -20z m3 -60 c0 -31
-16 -41 -26 -15 -8 19 2 45 16 45 5 0 10 -13 10 -30z"/>
<path d="M905 685 c0 -45 3 -55 17 -55 11 0 15 6 12 23 l-5 22 17 -22 c9 -13
24 -23 32 -23 11 0 6 11 -17 34 -24 24 -32 41 -28 55 4 15 0 21 -11 21 -14 0
-17 -10 -17 -55z"/>
<path d="M951 713 l-13 -28 26 24 c30 28 31 31 13 31 -8 0 -19 -12 -26 -27z"/>
<path d="M1000 730 c0 -5 5 -10 10 -10 6 0 10 5 10 10 0 6 -4 10 -10 10 -5 0
-10 -4 -10 -10z"/>
<path d="M1955 685 c0 -35 4 -55 12 -55 7 0 10 14 7 40 -3 22 -3 40 0 40 3 0
15 -18 26 -40 11 -22 24 -40 28 -40 4 0 7 25 7 55 0 32 -4 55 -10 55 -7 0 -9
-16 -7 -37 l3 -38 -22 38 c-32 52 -44 47 -44 -18z"/>
<path d="M1714 706 c-11 -30 1 -71 21 -73 11 -2 14 0 8 3 -16 7 -17 61 -1 66
7 3 5 7 -5 11 -11 4 -20 1 -23 -7z"/>
<path d="M2137 712 c-3 -4 -4 -23 -3 -42 1 -27 6 -35 21 -37 11 -2 14 0 8 3
-7 3 -13 19 -13 35 0 18 4 28 10 24 6 -3 10 -2 10 3 0 12 -28 24 -33 14z"/>
<path d="M998 670 c2 -22 9 -40 16 -40 7 0 10 14 8 40 -2 22 -9 40 -16 40 -7
0 -10 -14 -8 -40z"/>
<path d="M1045 669 c0 -21 5 -39 10 -39 6 0 10 12 10 28 0 39 19 43 23 5 2
-18 8 -33 13 -33 6 0 9 17 7 38 -3 33 -6 37 -33 39 -28 1 -30 -1 -30 -38z"/>
<path d="M1136 702 c-3 -4 -5 -21 -5 -38 0 -16 -2 -38 -3 -49 -4 -25 43 -33
61 -11 17 20 6 36 -27 37 l-27 1 25 7 c16 4 25 14 25 26 0 11 5 23 10 27 6 4
-4 8 -22 8 -17 0 -34 -4 -37 -8z m34 -22 c0 -11 -4 -20 -9 -20 -14 0 -23 18
-16 30 10 17 25 11 25 -10z m10 -70 c0 -5 -9 -10 -20 -10 -11 0 -20 5 -20 10
0 6 9 10 20 10 11 0 20 -4 20 -10z"/>
<path d="M1302 701 c-8 -4 -12 -21 -10 -37 2 -23 8 -29 27 -29 31 0 50 28 35
53 -13 20 -34 25 -52 13z m36 -34 c2 -19 -1 -27 -12 -27 -20 0 -29 16 -21 41
9 27 29 19 33 -14z"/>
<path d="M1375 668 c0 -25 5 -38 13 -38 9 0 12 10 10 32 -2 18 2 33 9 35 14 5
28 -40 18 -56 -3 -6 0 -11 7 -11 8 0 13 12 13 30 0 16 5 29 10 29 6 0 10 -13
10 -29 0 -17 4 -30 10 -30 11 0 13 49 2 66 -4 7 -28 12 -54 11 l-48 0 0 -39z"/>
<path d="M1554 702 c-18 -12 -23 -39 -10 -57 25 -35 83 6 60 43 -13 19 -34 26
-50 14z m34 -35 c2 -19 -1 -27 -12 -27 -20 0 -29 16 -21 41 9 27 29 19 33 -14z"/>
<path d="M1854 696 c-12 -32 0 -61 29 -64 15 -2 27 1 27 6 0 5 -10 8 -21 8
-12 -1 -24 5 -26 12 -3 7 5 12 22 12 20 0 26 4 23 18 -4 22 -46 29 -54 8z m36
-6 c0 -5 -7 -10 -16 -10 -8 0 -12 5 -9 10 3 6 10 10 16 10 5 0 9 -4 9 -10z"/>
<path d="M2058 685 c-8 -19 -8 -28 2 -40 14 -17 46 -20 55 -5 4 6 -3 9 -16 7
-12 -1 -24 4 -26 11 -3 7 5 12 21 12 28 0 33 9 14 28 -19 19 -37 14 -50 -13z
m42 5 c0 -5 -7 -10 -16 -10 -8 0 -12 5 -9 10 3 6 10 10 16 10 5 0 9 -4 9 -10z"/>
<path d="M2274 686 c-3 -14 -4 -33 0 -41 6 -15 56 -21 56 -7 0 5 -10 8 -21 8
-12 -1 -24 5 -26 12 -3 7 5 12 22 12 20 0 26 4 23 18 -2 9 -13 18 -25 20 -17
3 -24 -3 -29 -22z m41 4 c3 -5 -3 -10 -15 -10 -12 0 -18 5 -15 10 3 6 10 10
15 10 5 0 12 -4 15 -10z"/>
<path d="M2345 669 c0 -29 4 -39 16 -39 12 0 14 7 11 30 -3 18 0 30 7 30 6 0
11 4 11 9 0 5 -10 9 -22 9 -20 0 -23 -6 -23 -39z"/>
<path d="M2445 700 c-5 -9 -1 -10 14 -5 15 4 21 2 21 -8 0 -8 -9 -17 -21 -20
-29 -8 -19 -31 15 -35 26 -3 27 -2 24 35 -2 30 -7 39 -25 41 -11 2 -24 -2 -28
-8z m35 -50 c0 -5 -4 -10 -10 -10 -5 0 -10 5 -10 10 0 6 5 10 10 10 6 0 10 -4
10 -10z"/>
<path d="M2518 670 c5 -45 27 -55 27 -12 0 39 19 43 23 5 4 -38 22 -45 22 -9
0 43 -10 56 -44 56 -31 0 -31 -1 -28 -40z"/>
<path d="M2693 694 c-4 -10 1 -22 10 -29 23 -17 21 -28 -3 -22 -11 3 -18 1
-14 -4 8 -13 41 -11 50 3 4 6 -2 19 -14 29 -28 22 -28 32 -1 24 15 -5 19 -4
15 4 -11 16 -36 13 -43 -5z"/>
</g>
</svg>
