<?xml version="1.0" standalone="no"?>
<!DOCTYPE svg PUBLIC "-//W3C//DTD SVG 20010904//EN"
 "http://www.w3.org/TR/2001/REC-SVG-20010904/DTD/svg10.dtd">
<svg version="1.0" xmlns="http://www.w3.org/2000/svg"
 width="300.000000pt" height="111.000000pt" viewBox="0 0 300.000000 111.000000"
 preserveAspectRatio="xMidYMid meet">
<metadata>
Created by potrace 1.10, written by Peter Selinger 2001-2011
</metadata>
<g transform="translate(0.000000,111.000000) scale(0.100000,-0.100000)"
fill="#000000" stroke="none">
<path d="M1125 560 c0 -409 3 -520 13 -520 9 0 12 111 12 520 0 409 -3 520
-12 520 -10 0 -13 -111 -13 -520z"/>
<path d="M416 1049 c-82 -19 -170 -71 -236 -138 -105 -107 -150 -214 -150
-356 0 -217 127 -395 345 -480 40 -16 74 -20 175 -20 119 0 129 2 203 34 132
57 241 174 286 309 30 89 29 234 -3 323 -55 155 -183 275 -345 323 -60 18
-210 20 -275 5z m257 -14 c179 -46 318 -181 362 -350 19 -76 19 -184 0 -260
-56 -213 -260 -365 -490 -365 -138 0 -256 50 -356 149 -198 199 -198 494 0
691 106 105 208 148 351 149 42 1 102 -6 133 -14z"/>
<path d="M487 990 c3 -11 9 -20 14 -20 4 0 7 9 6 20 -1 11 -7 20 -13 20 -7 0
-10 -8 -7 -20z"/>
<path d="M522 993 c2 -10 10 -18 18 -18 8 0 16 8 18 18 2 12 -3 17 -18 17 -15
0 -20 -5 -18 -17z m28 -3 c0 -5 -4 -10 -10 -10 -5 0 -10 5 -10 10 0 6 5 10 10
10 6 0 10 -4 10 -10z"/>
<path d="M570 990 c0 -19 3 -21 12 -12 9 9 9 15 0 24 -9 9 -12 7 -12 -12z"/>
<path d="M602 990 c0 -14 2 -19 5 -12 2 6 2 18 0 25 -3 6 -5 1 -5 -13z"/>
<path d="M629 994 c-10 -13 -10 -17 2 -25 23 -14 30 -10 20 10 -6 10 -7 21 -4
25 3 3 4 6 1 6 -3 0 -11 -7 -19 -16z"/>
<path d="M390 979 c0 -19 -2 -21 -10 -9 -7 12 -12 12 -22 2 -19 -19 4 -37 30
-23 10 6 22 7 26 4 12 -13 5 12 -9 31 -15 19 -15 19 -15 -5z"/>
<path d="M426 991 c-3 -5 0 -13 7 -19 15 -13 42 1 33 17 -9 13 -33 15 -40 2z"/>
<path d="M665 990 c-7 -12 2 -30 16 -30 12 0 12 27 0 35 -5 3 -12 1 -16 -5z"/>
<path d="M706 964 c-9 -23 -8 -24 13 -24 10 0 25 -7 32 -16 12 -14 14 -14 20
3 9 24 0 37 -16 23 -9 -8 -14 -5 -18 10 -6 24 -22 26 -31 4z"/>
<path d="M313 953 c-7 -2 -9 -11 -6 -20 4 -10 2 -14 -4 -10 -6 4 -18 4 -27 1
-14 -5 -14 -9 -4 -22 11 -13 10 -14 -10 -8 -13 5 -22 3 -22 -3 0 -6 5 -11 11
-11 5 0 7 -6 3 -12 -3 -7 8 2 25 20 18 18 36 30 41 27 12 -8 19 7 11 26 -3 9
-11 14 -18 12z"/>
<path d="M435 936 c-150 -47 -249 -156 -280 -305 -27 -129 10 -253 106 -352
128 -132 345 -157 501 -58 248 158 248 510 0 668 -91 57 -231 77 -327 47z
m171 -7 c128 -23 226 -95 286 -211 30 -59 33 -70 33 -163 0 -91 -3 -106 -29
-160 -76 -154 -237 -238 -408 -212 -250 37 -396 308 -289 534 33 70 143 178
172 170 11 -3 17 -1 14 3 -8 13 8 20 78 35 79 17 73 17 143 4z"/>
<path d="M558 643 c17 -7 15 -43 -2 -43 -8 0 -17 8 -21 18 -6 15 -8 14 -16 -6
-7 -19 -14 -22 -41 -17 -22 4 -39 1 -53 -9 -20 -16 -19 -17 18 -49 48 -42 48
-59 0 -55 l-38 3 -3 58 c-2 42 -7 57 -17 57 -11 0 -15 -14 -15 -54 0 -60 -8
-71 -46 -62 -22 6 -24 11 -24 61 0 42 -3 55 -15 55 -12 0 -15 -13 -15 -60 0
-75 6 -78 138 -74 126 4 157 31 87 76 -19 13 -35 26 -35 31 0 15 39 7 50 -10
10 -17 10 -17 20 0 6 9 18 17 25 17 19 0 21 -90 3 -108 -9 -9 -3 -12 27 -12
30 0 36 3 27 12 -18 18 -16 108 3 108 21 0 37 -36 33 -78 -2 -28 1 -38 14 -40
14 -3 17 6 20 50 3 45 6 53 23 53 17 0 20 -7 21 -50 1 -38 5 -51 17 -53 14 -3
17 5 17 46 0 36 4 52 16 56 26 10 34 -3 34 -55 0 -38 4 -49 15 -49 13 0 15 11
13 61 -3 70 -22 94 -58 72 -15 -10 -25 -10 -44 -1 -19 8 -29 8 -39 -1 -20 -16
-47 -3 -47 23 -1 19 -2 19 -11 4 -5 -10 -17 -18 -24 -18 -21 0 -19 38 3 43 9
3 -3 5 -28 5 -25 0 -39 -2 -32 -5z"/>
<path d="M305 430 c4 -6 10 -8 15 -5 5 3 8 -7 8 -22 -1 -71 0 -73 57 -99 30
-14 71 -27 92 -30 30 -3 26 -1 -17 11 -84 24 -114 45 -118 83 l-3 32 35 -19
c115 -65 239 -66 365 -2 l41 21 0 -20 c0 -12 5 -18 10 -15 6 4 8 11 4 16 -3 5
2 21 10 34 21 33 1 33 -29 1 -37 -39 -130 -70 -215 -70 -85 0 -178 31 -215 70
-22 24 -52 34 -40 14z"/>
<path d="M300 390 c0 -5 5 -10 10 -10 6 0 10 5 10 10 0 6 -4 10 -10 10 -5 0
-10 -4 -10 -10z"/>
<path d="M800 390 c0 -5 5 -10 10 -10 6 0 10 5 10 10 0 6 -4 10 -10 10 -5 0
-10 -4 -10 -10z"/>
<path d="M734 356 c-10 -7 -36 -19 -57 -26 -27 -8 -36 -15 -28 -23 11 -11 71
9 71 25 0 5 4 7 9 4 4 -3 16 1 26 8 24 17 4 29 -21 12z"/>
<path d="M365 349 c-4 -5 6 -14 22 -20 72 -28 102 -37 107 -32 13 13 5 23 -16
23 -13 0 -42 9 -65 20 -25 11 -45 15 -48 9z"/>
<path d="M730 315 c-25 -13 -41 -24 -37 -25 11 0 87 39 87 45 0 7 0 7 -50 -20z"/>
<path d="M593 313 c-44 -6 -42 -23 2 -23 24 0 35 5 35 15 0 8 -1 14 -2 13 -2
0 -18 -3 -35 -5z"/>
<path d="M510 301 c0 -6 9 -9 20 -8 11 1 20 5 20 9 0 4 -9 8 -20 8 -11 0 -20
-4 -20 -9z"/>
<path d="M630 280 c-20 -6 -21 -8 -5 -8 11 0 29 3 40 8 25 11 -1 11 -35 0z"/>
<path d="M538 263 c12 -2 30 -2 40 0 9 3 -1 5 -23 4 -22 0 -30 -2 -17 -4z"/>
<path d="M794 916 c-16 -18 18 -40 35 -23 14 14 15 30 1 22 -5 -3 -10 -1 -10
4 0 15 -12 13 -26 -3z"/>
<path d="M839 884 c-10 -13 -9 -16 8 -20 15 -4 19 -11 15 -26 -3 -14 -1 -19 6
-15 5 4 13 1 16 -5 3 -7 3 -3 0 9 -4 19 -2 22 12 16 12 -4 15 -3 10 5 -4 7
-14 12 -22 12 -8 0 -14 6 -14 14 0 22 -16 28 -31 10z m21 -4 c0 -5 -5 -10 -11
-10 -5 0 -7 5 -4 10 3 6 8 10 11 10 2 0 4 -4 4 -10z"/>
<path d="M205 870 c-4 -6 -1 -17 5 -25 15 -18 -1 -20 -19 -2 -11 10 -13 9 -9
-3 7 -23 35 -24 48 0 16 30 -8 58 -25 30z"/>
<path d="M904 815 c-8 -19 14 -47 30 -38 6 4 5 -1 -3 -10 -15 -19 -2 -24 16
-6 15 15 -6 39 -26 31 -10 -4 -12 1 -6 16 7 25 -2 30 -11 7z"/>
<path d="M160 810 c0 -5 9 -10 21 -10 11 0 17 5 14 10 -3 6 -13 10 -21 10 -8
0 -14 -4 -14 -10z"/>
<path d="M132 762 c-9 -20 -9 -28 1 -34 14 -9 33 -11 24 -2 -4 4 2 19 12 33
19 26 19 26 -3 27 -14 1 -26 -7 -34 -24z m23 -12 c-3 -5 -11 -10 -16 -10 -6 0
-7 5 -4 10 3 6 11 10 16 10 6 0 7 -4 4 -10z"/>
<path d="M935 740 c-8 -12 20 -24 35 -15 6 3 8 11 5 16 -8 12 -32 12 -40 -1z"/>
<path d="M965 712 c-11 -8 -17 -64 -6 -58 4 3 13 1 21 -5 10 -6 11 -9 3 -9 -7
0 -13 -5 -13 -11 0 -5 5 -7 11 -3 6 3 16 0 21 -7 7 -10 8 -9 3 6 -4 11 -7 28
-7 38 0 10 -9 22 -21 27 -17 7 -18 9 -4 9 9 1 17 6 17 11 0 12 -11 13 -25 2z
m25 -36 c0 -3 -4 -8 -10 -11 -5 -3 -10 -1 -10 4 0 6 5 11 10 11 6 0 10 -2 10
-4z"/>
<path d="M115 700 c-19 -8 -19 -9 3 -9 12 -1 22 4 22 9 0 6 -1 10 -2 9 -2 0
-12 -4 -23 -9z"/>
<path d="M100 670 c20 -13 33 -13 25 0 -3 6 -14 10 -23 10 -15 0 -15 -2 -2
-10z"/>
<path d="M94 635 c-18 -14 -18 -14 4 -15 13 0 21 4 18 9 -4 5 0 12 6 14 7 3 8
6 2 6 -5 1 -19 -6 -30 -14z"/>
<path d="M95 601 c17 -8 18 -10 3 -10 -10 -1 -18 -6 -18 -12 0 -6 8 -9 18 -7
24 5 22 32 -3 35 -20 3 -20 3 0 -6z"/>
<path d="M970 585 c0 -8 5 -15 11 -15 5 0 7 6 3 13 -5 8 -2 8 9 -2 15 -12 17
-11 17 3 0 9 -8 16 -20 16 -11 0 -20 -7 -20 -15z"/>
<path d="M80 520 c0 -11 7 -20 15 -20 8 0 15 9 15 20 0 11 -7 20 -15 20 -8 0
-15 -9 -15 -20z"/>
<path d="M980 520 c0 -13 7 -20 20 -20 13 0 20 7 20 20 0 13 -7 20 -20 20 -13
0 -20 -7 -20 -20z"/>
<path d="M83 455 c-8 -23 0 -25 21 -4 18 17 18 19 2 19 -9 0 -19 -7 -23 -15z"/>
<path d="M977 451 c-3 -13 0 -18 7 -15 7 3 13 -2 13 -11 0 -10 -6 -13 -19 -9
-17 5 -22 -5 -21 -43 1 -7 -4 -13 -11 -13 -6 0 -4 -5 4 -10 8 -5 20 -10 25
-10 6 0 4 4 -3 9 -10 6 -8 10 9 14 18 5 20 9 10 21 -9 11 -9 15 0 18 7 2 13
11 15 19 1 7 4 21 6 29 3 8 3 11 0 7 -2 -4 -10 -3 -17 3 -9 8 -14 5 -18 -9z
m-2 -71 c3 -5 1 -10 -4 -10 -6 0 -11 5 -11 10 0 6 2 10 4 10 3 0 8 -4 11 -10z"/>
<path d="M107 423 c4 -11 3 -14 -5 -9 -8 4 -10 2 -6 -8 8 -22 33 -8 27 15 -3
10 -9 19 -14 19 -5 0 -5 -7 -2 -17z"/>
<path d="M110 380 c-13 -8 -13 -10 2 -10 11 0 15 -5 12 -15 -4 -8 -2 -15 4
-15 5 0 12 7 16 15 3 8 1 15 -5 15 -6 0 -7 5 -4 10 8 13 -5 13 -25 0z"/>
<path d="M142 334 c-11 -12 -9 -20 9 -45 16 -23 24 -28 30 -17 16 24 10 40
-11 33 -21 -7 -29 10 -7 18 8 3 9 8 2 15 -7 7 -14 6 -23 -4z"/>
<path d="M926 331 c-4 -5 3 -15 15 -21 18 -10 20 -9 17 6 -4 20 -23 30 -32 15z"/>
<path d="M915 300 c3 -5 -2 -10 -12 -10 -17 -1 -17 -1 0 -11 13 -8 22 -8 29
-1 11 11 3 32 -13 32 -6 0 -7 -4 -4 -10z"/>
<path d="M192 258 c2 -15 9 -22 21 -22 14 2 16 -3 11 -19 -6 -19 -5 -20 10 -8
14 12 16 11 16 -8 0 -18 3 -20 19 -10 17 11 16 14 -13 40 -25 22 -34 25 -45
16 -12 -10 -13 -8 -9 11 4 12 2 22 -4 22 -5 0 -8 -10 -6 -22z"/>
<path d="M880 259 c0 -5 9 -9 20 -9 11 0 20 2 20 4 0 2 -9 6 -20 9 -11 3 -20
1 -20 -4z"/>
<path d="M861 230 c-1 -20 -3 -22 -11 -10 -8 13 -12 12 -29 -7 -11 -11 -17
-24 -13 -29 4 -4 -1 -4 -12 0 -14 5 -17 3 -12 -10 3 -8 6 -18 6 -20 0 -2 9 1
19 8 11 7 17 16 15 20 -3 4 -1 8 5 8 6 0 8 8 5 18 -5 15 -4 15 8 1 12 -14 16
-13 38 9 14 14 18 20 8 13 -14 -10 -17 -9 -21 6 -3 13 -5 11 -6 -7z"/>
<path d="M287 183 c-15 -14 -6 -25 10 -12 15 12 16 12 10 -4 -4 -10 -3 -16 2
-12 5 3 11 0 13 -5 2 -6 11 -4 23 5 20 16 20 16 -2 12 -15 -4 -23 0 -23 9 0
14 -21 19 -33 7z"/>
<path d="M740 159 c0 -5 -4 -7 -10 -4 -13 8 -13 -5 0 -25 7 -11 10 -11 10 -2
0 7 4 11 9 8 10 -7 23 19 14 28 -10 10 -23 7 -23 -5z"/>
<path d="M360 136 c0 -23 18 -28 29 -9 9 16 10 15 11 -6 0 -24 1 -24 14 -5 13
17 13 20 -2 26 -29 11 -52 9 -52 -6z"/>
<path d="M700 135 c0 -8 4 -15 10 -15 5 0 7 7 4 15 -4 8 -8 15 -10 15 -2 0 -4
-7 -4 -15z"/>
<path d="M660 132 c0 -5 7 -16 16 -23 14 -12 16 -11 13 5 -4 20 -29 35 -29 18z"/>
<path d="M457 111 c6 -25 23 -28 24 -3 0 14 2 14 9 -3 5 -11 9 -16 9 -11 1 5
6 5 14 0 20 -15 51 -10 55 8 3 13 -4 17 -30 17 -18 0 -45 3 -60 6 -24 6 -26 5
-21 -14z"/>
<path d="M600 119 c0 -5 -4 -7 -10 -4 -5 3 -10 -4 -10 -16 0 -17 3 -19 13 -10
8 6 17 8 20 4 4 -3 7 3 7 15 0 12 -4 22 -10 22 -5 0 -10 -5 -10 -11z"/>
<path d="M630 111 c0 -17 7 -19 38 -12 5 1 -26 31 -32 31 -3 0 -6 -9 -6 -19z"/>
<path d="M2208 783 c6 -2 18 -2 25 0 6 3 1 5 -13 5 -14 0 -19 -2 -12 -5z"/>
<path d="M1210 736 c0 -40 24 -65 48 -49 19 11 30 83 13 83 -6 0 -11 -16 -11
-35 0 -24 -5 -35 -15 -35 -10 0 -15 11 -15 35 0 19 -4 35 -10 35 -5 0 -10 -15
-10 -34z"/>
<path d="M1302 725 c0 -42 1 -45 7 -20 l8 30 13 -27 c19 -41 30 -34 30 17 0
25 -4 45 -9 45 -4 0 -6 -11 -3 -25 2 -15 0 -25 -7 -25 -6 0 -11 4 -11 8 0 5
-7 17 -15 28 -13 17 -14 15 -13 -31z"/>
<path d="M1383 725 c0 -27 2 -38 4 -22 2 15 2 37 0 50 -2 12 -4 0 -4 -28z"/>
<path d="M1417 725 c8 -25 19 -45 24 -45 4 0 14 19 21 43 l13 42 3 -42 c3 -42
4 -43 38 -43 19 0 34 5 34 10 0 6 -11 10 -25 10 -14 0 -25 5 -25 10 0 6 9 10
20 10 27 0 25 18 -2 23 l-23 4 23 2 c39 2 24 21 -18 21 -34 0 -41 -4 -46 -25
-3 -14 -10 -25 -14 -25 -4 0 -11 11 -14 25 -4 14 -11 25 -16 25 -5 0 -2 -20 7
-45z"/>
<path d="M1560 724 c0 -28 4 -43 10 -39 6 4 8 10 5 15 -12 20 15 18 29 -2 9
-12 19 -19 23 -15 3 4 1 13 -5 19 -8 8 -8 15 -2 23 17 21 0 45 -31 45 -28 0
-29 -2 -29 -46z m50 16 c0 -5 -9 -10 -20 -10 -11 0 -20 5 -20 10 0 6 9 10 20
10 11 0 20 -4 20 -10z"/>
<path d="M1646 755 c-8 -22 1 -35 25 -35 10 0 19 -5 19 -11 0 -7 -10 -9 -27
-4 -26 6 -27 5 -12 -10 13 -14 21 -15 37 -6 25 13 19 41 -9 41 -10 0 -19 5
-19 11 0 6 9 8 21 4 15 -5 20 -3 17 6 -7 21 -44 23 -52 4z"/>
<path d="M1723 725 c0 -27 2 -38 4 -22 2 15 2 37 0 50 -2 12 -4 0 -4 -28z"/>
<path d="M1750 725 c0 -34 4 -45 16 -45 28 0 54 20 54 43 0 29 -18 47 -47 47
-21 0 -23 -5 -23 -45z m55 0 c0 -11 -8 -21 -17 -23 -14 -3 -18 3 -18 23 0 20
4 26 18 23 9 -2 17 -12 17 -23z"/>
<path d="M1852 753 c-5 -10 -12 -31 -16 -48 -6 -24 -5 -28 5 -17 15 14 49 16
49 2 0 -5 4 -10 10 -10 5 0 2 20 -8 45 -18 49 -26 55 -40 28z m22 -18 c3 -9 0
-15 -9 -15 -9 0 -12 6 -9 15 4 8 7 15 9 15 2 0 5 -7 9 -15z"/>
<path d="M1920 725 c0 -36 3 -45 18 -45 22 0 37 11 45 33 10 27 -10 57 -38 57
-23 0 -25 -4 -25 -45z m48 -3 c3 -17 -2 -22 -17 -22 -16 0 -21 6 -21 26 0 33
33 30 38 -4z"/>
<path d="M2000 725 c0 -43 1 -45 30 -45 17 0 30 5 30 10 0 6 -11 10 -25 10
-14 0 -25 5 -25 10 0 6 12 10 26 10 15 0 23 4 19 11 -4 6 -13 8 -21 5 -7 -3
-16 -1 -19 4 -4 6 5 10 19 10 14 0 26 5 26 10 0 6 -13 10 -30 10 -29 0 -30 -2
-30 -45z"/>
<path d="M2112 758 c-14 -14 2 -38 24 -38 8 0 14 -5 14 -11 0 -7 -10 -9 -27
-4 -27 6 -27 6 -10 -12 13 -13 21 -15 34 -7 27 17 27 33 -1 44 -34 13 -33 24
1 15 23 -5 25 -4 14 9 -16 19 -33 20 -49 4z"/>
<path d="M2192 731 c-16 -51 -15 -53 7 -39 15 9 23 9 35 -2 9 -7 18 -11 20 -9
6 7 -33 89 -42 89 -5 0 -14 -17 -20 -39z m32 4 c3 -9 0 -15 -9 -15 -9 0 -12 6
-9 15 4 8 7 15 9 15 2 0 5 -7 9 -15z"/>
<path d="M2270 755 c-15 -18 -6 -61 16 -69 24 -9 54 12 54 37 0 43 -44 63 -70
32z m54 -14 c10 -16 -6 -42 -23 -39 -9 2 -17 13 -19 26 -3 16 2 22 17 22 11 0
22 -4 25 -9z"/>
<path d="M2380 760 c0 -5 7 -10 15 -10 11 0 15 -11 15 -36 0 -19 4 -33 8 -30
5 3 7 19 4 36 -3 23 0 30 12 30 9 0 16 5 16 10 0 6 -16 10 -35 10 -19 0 -35
-4 -35 -10z"/>
<path d="M2462 758 c-18 -18 -14 -56 7 -68 26 -14 50 -3 57 26 11 42 -34 72
-64 42z m48 -28 c0 -24 -29 -38 -40 -20 -12 19 -1 40 21 40 12 0 19 -7 19 -20z"/>
<path d="M2540 724 c0 -31 3 -45 10 -38 15 15 17 76 3 81 -9 3 -13 -9 -13 -43z"/>
<path d="M2597 763 c-4 -3 -7 -15 -7 -25 0 -11 -4 -16 -10 -13 -5 3 -10 -3
-10 -14 0 -34 17 -33 25 2 l8 32 7 -35 c7 -34 7 -34 9 13 1 44 -6 57 -22 40z"/>
<path d="M2651 748 c-5 -13 -12 -34 -16 -48 -6 -20 -5 -23 6 -12 16 14 49 16
49 2 0 -5 4 -10 9 -10 6 0 3 20 -6 45 -17 50 -29 57 -42 23z m23 -13 c3 -8 1
-15 -4 -15 -6 0 -10 7 -10 15 0 8 2 15 4 15 2 0 6 -7 10 -15z"/>
<path d="M2724 755 c-7 -18 3 -35 22 -35 8 0 14 -5 14 -11 0 -6 -9 -9 -20 -6
-11 3 -20 2 -20 -3 0 -12 28 -20 45 -14 23 9 18 33 -10 44 -33 13 -32 24 2 15
23 -5 25 -4 14 9 -17 20 -40 21 -47 1z"/>
<path d="M2830 725 c0 -36 3 -45 18 -45 22 0 37 11 45 33 10 27 -10 57 -38 57
-23 0 -25 -4 -25 -45z m50 0 c0 -18 -5 -25 -20 -25 -15 0 -20 7 -20 25 0 18 5
25 20 25 15 0 20 -7 20 -25z"/>
<path d="M2910 725 c0 -43 1 -45 30 -45 17 0 30 5 30 10 0 6 -11 10 -25 10
-14 0 -25 5 -25 10 0 6 11 10 25 10 14 0 25 5 25 11 0 6 -9 9 -20 6 -11 -3
-23 -1 -26 4 -3 5 6 9 20 9 14 0 26 5 26 10 0 6 -13 10 -30 10 -29 0 -30 -2
-30 -45z"/>
<path d="M1220 410 c0 -79 2 -90 18 -90 15 0 17 9 14 71 -3 49 0 69 7 65 6 -4
11 -16 11 -27 0 -47 23 -109 39 -109 13 0 21 16 31 65 7 36 16 65 19 65 3 0 4
-29 3 -65 -3 -60 -2 -65 17 -65 20 0 21 5 21 90 l0 90 -30 0 c-28 0 -30 -3
-42 -60 -6 -33 -15 -60 -19 -60 -3 0 -12 27 -19 60 -12 56 -14 60 -41 60 l-29
0 0 -90z"/>
<path d="M1455 475 c-36 -35 -35 -105 1 -134 46 -36 105 -27 129 20 23 43 18
77 -14 110 -38 37 -82 39 -116 4z m95 -24 c29 -56 -8 -123 -54 -99 -26 14 -36
28 -36 53 0 54 67 88 90 46z"/>
<path d="M1645 468 c-36 -43 -30 -98 14 -138 16 -15 32 -26 34 -23 3 2 8 0 12
-6 4 -7 -4 -11 -21 -11 -20 0 -25 -3 -17 -11 14 -14 63 -1 63 17 0 8 -6 14
-12 14 -7 1 1 7 18 14 17 8 34 21 37 30 10 26 -19 30 -43 6 -19 -19 -24 -20
-43 -7 -25 16 -35 80 -16 103 15 19 58 18 65 -1 8 -19 34 -20 34 -1 0 21 -39
46 -71 46 -18 0 -36 -11 -54 -32z"/>
<path d="M1851 478 c-17 -47 -51 -148 -51 -153 0 -15 33 -2 37 15 4 16 14 20
43 20 30 0 40 -5 45 -20 3 -11 15 -20 25 -20 18 0 17 6 -12 90 -28 79 -34 90
-55 90 -15 0 -26 -8 -32 -22z m58 -80 c1 -5 -12 -8 -29 -8 -27 0 -29 2 -21 23
5 12 12 31 16 42 6 17 9 15 20 -15 8 -19 14 -38 14 -42z"/>
<path d="M1990 410 c0 -82 2 -90 19 -90 17 0 18 7 15 57 -2 31 1 64 6 72 8 13
9 12 10 -6 0 -12 5 -44 12 -72 8 -37 16 -51 29 -51 13 0 20 15 30 65 7 36 16
65 21 65 4 0 7 -29 5 -65 -2 -57 0 -65 15 -65 16 0 18 10 18 90 l0 90 -29 0
c-27 0 -29 -4 -42 -60 -7 -33 -16 -60 -20 -60 -3 0 -12 27 -19 60 -12 56 -14
60 -41 60 l-29 0 0 -90z"/>
<path d="M2200 410 l0 -90 63 0 c36 0 68 5 75 12 18 18 15 65 -5 77 -10 6 -12
11 -5 11 15 0 16 52 0 68 -7 7 -38 12 -70 12 l-58 0 0 -90z m110 41 c0 -20
-18 -31 -51 -31 -14 0 -19 7 -19 25 0 22 4 25 35 25 28 0 35 -4 35 -19z m-1
-60 c23 -15 5 -38 -33 -43 -34 -4 -36 -2 -36 24 0 24 4 28 28 28 15 0 33 -4
41 -9z"/>
<path d="M2385 410 c0 -79 2 -90 18 -90 15 0 17 11 17 90 0 79 -2 90 -17 90
-16 0 -18 -11 -18 -90z"/>
<path d="M2475 475 c-35 -34 -35 -96 0 -131 19 -19 35 -25 63 -23 20 1 45 -2
54 -6 24 -10 46 5 24 17 -12 7 -14 14 -6 28 33 63 -8 140 -75 140 -25 0 -44
-8 -60 -25z m96 -21 c13 -15 17 -80 5 -91 -3 -3 -12 0 -21 7 -9 7 -19 10 -22
6 -4 -4 -1 -11 7 -16 22 -14 4 -23 -20 -10 -53 28 -42 120 15 120 12 0 28 -7
36 -16z"/>
<path d="M2652 423 c6 -85 18 -103 73 -103 52 0 63 17 71 103 7 74 6 77 -15
77 -19 0 -21 -5 -21 -70 0 -55 -3 -71 -17 -79 -11 -6 -24 -6 -35 0 -15 8 -18
23 -18 79 0 65 -2 70 -21 70 -21 0 -21 -4 -17 -77z"/>
<path d="M2840 410 l0 -90 65 0 c53 0 65 3 65 16 0 14 -9 16 -50 12 -49 -5
-50 -5 -50 23 0 28 2 29 45 29 32 0 45 4 45 14 0 10 -11 12 -45 8 -43 -4 -45
-4 -45 22 0 25 3 26 50 26 38 0 50 4 50 15 0 12 -14 15 -65 15 l-65 0 0 -90z"/>
</g>
</svg>
