<?xml version="1.0" standalone="no"?>
<!DOCTYPE svg PUBLIC "-//W3C//DTD SVG 20010904//EN"
 "http://www.w3.org/TR/2001/REC-SVG-20010904/DTD/svg10.dtd">
<svg version="1.0" xmlns="http://www.w3.org/2000/svg"
 width="900.000000pt" height="507.000000pt" viewBox="0 0 900.000000 507.000000"
 preserveAspectRatio="xMidYMid meet">
<metadata>
Created by potrace 1.10, written by Peter Selinger 2001-2011
</metadata>
<g transform="translate(0.000000,507.000000) scale(0.100000,-0.100000)"
fill="#000000" stroke="none">
<path d="M6038 3399 c-2 -7 0 -44 4 -83 9 -82 8 -966 -1 -1072 -4 -40 -5 -77
-3 -83 2 -7 38 -11 98 -11 l94 0 0 630 0 630 -94 0 c-61 0 -96 -4 -98 -11z"/>
<path d="M2245 3351 c-60 -7 -82 -15 -163 -55 -65 -31 -74 -38 -127 -81 -54
-45 -135 -146 -135 -168 0 -8 -7 -20 -15 -27 -8 -7 -15 -21 -15 -32 0 -10 -7
-29 -15 -41 -9 -14 -17 -62 -21 -132 -7 -140 4 -230 43 -330 30 -77 191 -250
253 -272 8 -3 29 -11 45 -18 85 -36 106 -39 259 -43 128 -2 169 0 210 14 55
17 112 41 136 55 8 5 21 12 29 16 8 3 22 14 30 22 9 9 30 26 46 38 l30 21 0
201 c0 125 -4 202 -10 204 -5 1 -50 2 -100 2 l-90 0 3 -165 3 -165 -38 -16
c-21 -8 -54 -22 -73 -29 -20 -8 -84 -16 -149 -18 -113 -3 -153 4 -211 39 -8 5
-24 13 -35 18 -58 25 -165 162 -165 211 0 9 -7 34 -15 53 -30 71 -16 174 39
297 20 46 127 160 149 160 7 0 18 5 24 11 27 27 119 48 209 49 104 0 164 -16
240 -67 28 -18 55 -33 60 -32 5 0 27 27 49 61 22 33 45 67 50 75 11 16 12 15
-97 76 -37 20 -75 37 -83 37 -9 0 -28 6 -43 14 -32 16 -221 27 -307 17z"/>
<path d="M3285 3051 c-63 -12 -152 -61 -210 -116 -172 -163 -192 -421 -47
-614 36 -49 155 -141 181 -141 9 0 27 -7 40 -16 19 -14 49 -17 147 -17 127 0
140 3 243 52 57 27 153 129 190 203 32 66 33 69 33 202 0 97 -5 143 -15 163
-8 15 -22 44 -32 63 -20 40 -120 147 -150 161 -11 5 -27 13 -35 18 -69 39 -85
43 -193 46 -62 2 -130 0 -152 -4z m233 -172 c54 -27 121 -91 147 -143 29 -57
27 -214 -3 -272 -86 -167 -296 -213 -442 -95 -59 48 -110 157 -110 236 1 101
67 212 158 262 49 28 67 32 131 33 57 0 85 -5 119 -21z"/>
<path d="M4300 3050 c-50 -12 -109 -35 -122 -48 -7 -7 -17 -12 -23 -12 -16 0
-127 -117 -151 -160 -34 -60 -49 -130 -49 -235 0 -131 25 -203 102 -293 41
-49 142 -122 168 -122 9 0 27 -8 41 -17 36 -23 262 -23 299 1 13 9 33 16 44
16 45 0 183 126 223 205 65 128 65 297 0 434 -28 58 -135 164 -197 195 -86 42
-236 58 -335 36z m236 -171 c55 -26 117 -88 143 -143 30 -60 30 -204 0 -265
-28 -58 -96 -124 -155 -151 -55 -24 -148 -24 -218 1 -52 19 -132 97 -156 154
-26 62 -28 205 -2 251 36 65 77 111 126 141 46 28 59 31 135 32 66 1 94 -3
127 -20z"/>
<path d="M5265 3051 c-55 -10 -151 -69 -183 -114 -8 -10 -21 -25 -30 -35 -17
-17 -37 -57 -62 -122 -22 -57 -25 -222 -4 -283 38 -114 71 -163 149 -222 88
-66 100 -70 230 -69 102 0 126 4 158 21 37 21 84 67 120 117 10 14 27 26 39
26 17 0 19 -5 15 -27 -4 -16 -14 -73 -23 -128 -23 -133 -53 -181 -148 -230
-53 -27 -239 -28 -279 -2 -14 9 -31 17 -38 17 -6 0 -29 14 -50 31 -40 31 -69
33 -69 4 0 -16 -39 -77 -52 -83 -14 -6 -8 -39 10 -53 9 -8 35 -23 57 -33 22
-10 52 -25 67 -32 14 -8 35 -14 46 -14 11 0 36 -7 55 -15 48 -20 186 -20 234
0 19 8 42 15 51 15 47 0 222 130 222 165 0 7 7 18 15 25 8 7 15 21 15 32 0 10
6 31 14 46 12 22 15 117 18 495 l3 467 -93 0 -93 0 3 -62 c3 -53 0 -63 -14
-66 -10 -2 -18 2 -18 10 0 17 -64 77 -108 102 -37 20 -188 30 -257 17z m208
-145 c61 -16 137 -80 166 -139 30 -62 30 -199 0 -257 -104 -200 -370 -199
-468 2 -26 55 -30 200 -6 232 8 11 15 27 15 37 0 9 22 38 49 65 68 68 145 87
244 60z m287 -50 c0 -33 -5 -43 -23 -52 -22 -10 -25 -8 -36 33 -13 41 -12 44
10 62 32 26 49 11 49 -43z m-2 -448 c3 -65 -6 -72 -45 -36 -39 37 -25 103 22
96 17 -3 20 -12 23 -60z"/>
<path d="M6701 3053 c-19 -2 -44 -11 -55 -19 -11 -8 -26 -14 -34 -14 -17 0
-65 -34 -123 -88 -146 -135 -170 -397 -55 -600 17 -29 104 -112 131 -123 11
-5 27 -13 35 -18 71 -40 90 -44 218 -44 98 0 136 4 160 17 17 9 38 16 48 16 9
0 36 14 61 30 24 17 47 30 51 30 13 1 54 40 50 48 -6 17 -96 112 -105 112 -5
0 -27 -16 -49 -35 -21 -19 -46 -35 -55 -35 -8 0 -24 -7 -35 -15 -13 -10 -46
-14 -107 -15 -78 0 -95 3 -148 30 -33 16 -73 44 -90 62 -35 38 -75 115 -65
126 8 8 611 4 674 -5 l42 -5 0 108 c0 109 -21 209 -48 236 -7 7 -12 17 -12 23
0 23 -111 121 -160 140 -8 3 -28 13 -44 21 -30 15 -218 27 -285 17z m249 -178
c72 -46 120 -118 120 -182 l0 -33 -270 0 -270 0 0 24 c0 14 4 27 9 31 5 3 12
18 16 34 7 31 59 85 120 124 36 23 51 26 138 26 87 1 102 -2 137 -24z m-439
-259 c14 -30 -3 -66 -31 -66 -15 0 -20 7 -20 29 0 61 30 83 51 37z"/>
</g>
</svg>
