<svg id="svg" version="1.1" width="1000" height="435" xmlns="http://www.w3.org/2000/svg" xmlns:xlink="http://www.w3.org/1999/xlink" style="display: block;"><g id="svgg"><path id="path0" d="M219.731 74.983 C 218.164 75.665,217.600 76.668,217.600 78.774 C 217.600 79.953,217.435 80.400,217.000 80.400 C 216.670 80.400,216.400 80.670,216.400 81.000 C 216.400 81.330,216.670 81.600,217.000 81.600 C 217.488 81.600,217.600 82.261,217.600 85.151 C 217.600 87.820,217.451 88.826,217.000 89.200 C 215.957 90.066,216.340 90.400,218.376 90.400 C 220.454 90.400,221.375 89.836,220.006 89.402 C 219.273 89.169,219.200 88.804,219.200 85.373 L 219.200 81.600 220.600 81.600 C 221.578 81.600,222.000 81.419,222.000 81.000 C 222.000 80.581,221.578 80.400,220.600 80.400 C 219.262 80.400,219.200 80.337,219.200 78.974 C 219.200 76.544,219.785 75.913,221.897 76.067 C 224.008 76.220,224.691 75.443,223.006 74.802 C 221.656 74.289,221.279 74.310,219.731 74.983 M165.783 75.227 C 165.638 75.462,165.897 75.753,166.360 75.874 C 167.066 76.058,167.200 76.399,167.200 78.009 C 167.200 79.706,167.112 79.902,166.426 79.723 C 164.226 79.147,161.067 81.569,160.571 84.212 C 159.746 88.609,163.019 91.809,166.459 89.968 C 167.094 89.628,167.369 89.678,167.750 90.199 C 168.196 90.809,168.313 90.797,169.217 90.044 C 169.758 89.595,169.975 89.221,169.700 89.213 C 169.319 89.203,169.200 87.486,169.200 82.000 L 169.200 74.800 167.624 74.800 C 166.757 74.800,165.928 74.992,165.783 75.227 M234.447 75.162 C 234.013 75.437,234.077 75.571,234.747 75.783 C 235.866 76.138,236.105 89.031,235.000 89.455 C 233.772 89.926,234.462 90.400,236.376 90.400 C 238.359 90.400,239.329 89.889,238.183 89.449 C 237.681 89.256,237.591 88.540,237.685 85.507 L 237.800 81.800 239.126 81.673 C 241.266 81.467,241.600 82.047,241.600 85.969 C 241.600 88.135,241.420 89.620,241.120 89.920 C 240.747 90.293,241.053 90.400,242.496 90.400 C 244.367 90.400,245.304 89.879,244.198 89.454 C 243.725 89.273,243.600 88.426,243.600 85.413 C 243.600 80.415,241.724 78.621,238.374 80.414 C 237.641 80.806,237.600 80.670,237.600 77.814 L 237.600 74.800 236.300 74.806 C 235.585 74.809,234.751 74.970,234.447 75.162 M290.598 75.203 C 290.461 75.424,290.631 75.714,290.975 75.846 C 291.717 76.130,291.930 88.949,291.200 89.400 C 290.298 89.958,290.906 90.400,292.576 90.400 C 294.463 90.400,295.227 89.879,294.192 89.299 C 293.683 89.015,293.588 88.284,293.683 85.375 L 293.800 81.800 295.384 81.671 C 296.542 81.576,297.107 81.732,297.484 82.247 C 298.100 83.090,298.196 89.031,297.600 89.400 C 296.698 89.958,297.306 90.400,298.976 90.400 C 300.781 90.400,301.686 89.872,300.598 89.454 C 300.135 89.277,299.999 88.478,299.994 85.913 C 299.985 80.857,298.687 79.331,295.191 80.264 L 293.600 80.689 293.600 77.744 L 293.600 74.800 292.224 74.800 C 291.467 74.800,290.735 74.981,290.598 75.203 M319.818 75.171 C 319.692 75.375,319.951 75.657,320.394 75.798 C 321.472 76.140,321.666 89.046,320.600 89.455 C 319.372 89.926,320.062 90.400,321.976 90.400 C 323.948 90.400,324.931 89.889,323.798 89.454 C 323.298 89.263,323.200 88.042,323.200 82.013 L 323.200 74.800 321.624 74.800 C 320.757 74.800,319.944 74.967,319.818 75.171 M352.583 75.227 C 352.438 75.462,352.697 75.753,353.160 75.874 C 353.862 76.057,354.000 76.400,354.000 77.956 L 354.000 79.818 352.469 79.818 C 348.512 79.818,345.874 84.675,347.804 88.408 C 348.757 90.250,351.517 91.073,353.191 90.014 C 353.586 89.764,353.983 89.822,354.391 90.190 C 355.355 91.059,356.633 89.983,356.013 88.824 C 355.717 88.271,355.603 85.731,355.681 81.391 L 355.800 74.799 354.324 74.799 C 353.512 74.800,352.728 74.992,352.583 75.227 M134.100 75.465 C 133.502 75.706,133.431 77.448,134.004 77.802 C 134.788 78.287,136.000 77.567,136.000 76.616 C 136.000 75.900,135.142 75.009,134.667 75.232 C 134.630 75.249,134.375 75.354,134.100 75.465 M269.100 76.276 C 268.245 76.499,268.169 77.200,269.000 77.200 C 269.496 77.200,269.599 77.943,269.596 81.500 L 269.592 85.800 268.076 83.400 C 267.242 82.080,265.939 79.970,265.180 78.711 C 263.856 76.516,260.400 75.134,260.400 76.800 C 260.400 77.020,260.670 77.200,261.000 77.200 C 261.507 77.200,261.600 78.135,261.600 83.213 C 261.600 88.188,261.497 89.265,261.000 89.455 C 259.743 89.938,260.477 90.439,262.269 90.322 C 263.957 90.212,265.368 89.200,263.833 89.200 C 263.290 89.200,263.200 88.506,263.200 84.329 L 263.200 79.459 266.530 84.829 C 271.053 92.126,271.200 92.102,271.200 84.078 C 271.200 78.808,271.308 77.609,271.819 77.184 C 272.895 76.291,271.203 75.726,269.100 76.276 M120.400 76.757 C 120.400 76.954,120.670 77.218,121.000 77.345 C 121.912 77.695,121.888 89.004,120.975 89.354 C 119.908 89.764,120.769 90.400,122.391 90.400 C 124.141 90.400,125.200 90.082,125.200 89.557 C 125.200 89.361,124.840 89.200,124.400 89.200 C 123.676 89.200,123.600 88.933,123.600 86.400 C 123.600 83.011,123.424 83.019,125.808 86.300 C 128.395 89.860,129.108 90.464,130.552 90.319 C 131.951 90.179,132.383 89.376,131.253 89.017 C 130.443 88.760,126.000 83.551,126.000 82.858 C 126.000 82.647,127.260 81.155,128.800 79.544 C 132.132 76.057,132.044 76.400,129.600 76.400 C 127.761 76.400,126.830 76.967,128.171 77.271 C 128.548 77.356,127.869 78.392,126.171 80.318 L 123.600 83.236 123.600 80.405 C 123.600 78.258,123.745 77.519,124.200 77.345 C 125.475 76.855,124.704 76.400,122.600 76.400 C 121.390 76.400,120.400 76.561,120.400 76.757 M228.478 79.719 C 227.023 81.221,226.906 81.600,227.900 81.599 C 228.519 81.598,228.587 81.980,228.491 84.899 C 228.336 89.604,229.282 90.968,232.193 90.238 C 233.847 89.822,233.733 88.511,232.047 88.559 L 230.600 88.600 230.484 85.100 L 230.369 81.600 231.784 81.600 C 232.776 81.600,233.200 81.420,233.200 81.000 C 233.200 80.581,232.778 80.400,231.800 80.400 C 230.573 80.400,230.400 80.276,230.400 79.400 C 230.400 78.074,230.010 78.138,228.478 79.719 M284.675 79.522 C 283.468 80.782,283.291 81.600,284.226 81.600 C 284.742 81.600,284.842 82.112,284.797 84.500 C 284.714 88.823,284.746 89.089,285.429 89.771 C 286.171 90.514,288.435 90.605,289.120 89.920 C 290.015 89.025,289.681 88.404,288.437 88.653 C 286.863 88.967,286.400 88.011,286.400 84.450 L 286.400 81.648 287.869 81.524 C 289.846 81.357,290.156 80.400,288.233 80.400 C 286.971 80.400,286.800 80.281,286.800 79.400 C 286.800 78.085,286.008 78.130,284.675 79.522 M152.951 80.175 C 150.479 81.251,149.492 84.692,151.173 86.373 C 151.836 87.036,151.864 87.215,151.373 87.622 C 150.701 88.180,150.610 89.835,151.230 90.219 C 151.507 90.389,151.353 90.812,150.799 91.401 C 147.919 94.467,153.785 97.282,157.641 94.684 C 160.899 92.488,159.183 89.218,154.767 89.206 C 152.353 89.200,151.938 89.026,152.270 88.161 C 152.409 87.800,153.098 87.600,154.200 87.600 C 157.363 87.600,159.808 83.653,157.900 81.630 C 157.490 81.195,157.593 81.134,158.469 81.289 C 159.259 81.428,159.588 81.291,159.725 80.765 C 159.962 79.860,159.083 79.512,157.797 80.001 C 157.163 80.242,156.426 80.238,155.774 79.990 C 154.505 79.508,154.480 79.509,152.951 80.175 M174.822 80.159 C 171.950 81.196,170.582 85.852,172.333 88.635 C 173.435 90.388,176.013 91.091,178.112 90.212 C 182.360 88.433,182.340 81.199,178.083 80.016 C 176.352 79.535,176.574 79.526,174.822 80.159 M207.762 80.412 C 202.262 83.134,205.239 92.301,211.004 90.399 C 215.380 88.954,215.916 81.894,211.782 80.167 C 210.016 79.429,209.709 79.447,207.762 80.412 M249.000 80.337 C 244.222 83.258,245.706 90.400,251.091 90.400 C 252.716 90.400,254.400 89.501,254.400 88.633 C 254.400 88.224,254.070 88.199,252.876 88.518 C 250.352 89.192,248.000 87.707,248.000 85.440 C 248.000 85.308,249.440 85.200,251.200 85.200 L 254.400 85.200 254.400 83.774 C 254.400 81.833,253.788 80.838,252.181 80.166 C 250.473 79.453,250.444 79.454,249.000 80.337 M276.875 80.022 C 272.685 81.702,272.803 89.439,277.031 90.232 C 279.418 90.680,282.000 89.836,282.000 88.607 C 282.000 88.228,281.640 88.207,280.476 88.518 C 278.396 89.073,276.939 88.628,276.207 87.214 C 275.223 85.310,275.365 85.200,278.800 85.200 L 282.000 85.200 282.000 84.026 C 282.000 80.884,279.532 78.956,276.875 80.022 M305.330 80.184 C 302.236 81.530,301.410 86.999,303.957 89.277 C 306.058 91.156,310.368 90.626,310.394 88.486 C 310.398 88.101,310.205 88.076,309.626 88.386 C 307.565 89.489,304.400 88.056,304.400 86.018 C 304.400 85.261,304.643 85.200,307.651 85.200 L 310.902 85.200 310.644 83.583 C 310.107 80.227,308.133 78.964,305.330 80.184 M316.254 80.429 C 315.380 81.116,315.200 81.150,315.200 80.629 C 315.200 80.179,314.809 80.000,313.824 80.000 C 312.177 80.000,311.664 80.592,312.789 81.194 C 313.855 81.764,314.041 89.056,313.000 89.455 C 311.725 89.945,312.496 90.400,314.600 90.400 C 316.704 90.400,317.475 89.945,316.200 89.455 C 315.728 89.274,315.600 88.458,315.600 85.640 C 315.600 81.804,315.992 81.163,317.953 81.785 C 318.872 82.077,319.425 80.953,318.758 80.149 C 318.127 79.389,317.485 79.461,316.254 80.429 M327.300 80.177 C 326.298 80.627,326.000 81.009,326.000 81.843 C 326.000 82.862,326.042 82.886,326.726 82.267 C 328.676 80.502,331.200 81.271,331.200 83.629 C 331.200 84.668,331.062 84.800,329.980 84.800 C 326.697 84.800,324.364 87.957,326.331 89.738 C 327.121 90.453,329.440 90.615,330.378 90.022 C 330.732 89.798,331.238 89.806,331.678 90.042 C 332.936 90.715,334.253 89.743,333.385 88.783 C 332.812 88.150,332.748 87.557,332.980 85.071 C 333.397 80.630,330.961 78.532,327.300 80.177 M360.436 80.036 C 357.273 81.301,357.732 84.693,361.266 86.170 C 362.992 86.891,363.537 87.964,362.545 88.689 C 361.631 89.358,360.389 89.318,359.424 88.587 C 358.377 87.796,358.000 87.848,358.000 88.786 C 358.000 91.267,364.007 90.704,364.645 88.163 C 365.057 86.522,364.223 85.318,362.017 84.369 C 358.688 82.937,359.634 80.577,363.134 81.581 C 364.247 81.900,364.400 81.850,364.400 81.162 C 364.400 79.892,362.293 79.294,360.436 80.036 M132.598 80.403 C 132.461 80.624,132.631 80.914,132.975 81.046 C 133.706 81.326,133.912 88.960,133.200 89.400 C 132.263 89.979,132.937 90.400,134.800 90.400 C 136.799 90.400,137.355 89.950,136.174 89.289 C 135.651 88.997,135.568 88.198,135.674 84.469 L 135.800 79.998 134.324 79.999 C 133.512 80.000,132.735 80.181,132.598 80.403 M138.446 80.363 C 138.003 80.643,138.064 80.806,138.746 81.171 C 139.851 81.762,140.074 89.043,139.000 89.455 C 137.772 89.926,138.462 90.400,140.376 90.400 C 142.359 90.400,143.329 89.889,142.183 89.449 C 141.681 89.256,141.591 88.540,141.685 85.507 L 141.800 81.800 143.126 81.673 C 145.266 81.467,145.600 82.047,145.600 85.969 C 145.600 88.135,145.420 89.620,145.120 89.920 C 144.747 90.293,145.102 90.400,146.720 90.400 C 148.722 90.400,149.450 89.935,148.200 89.455 C 147.725 89.273,147.600 88.432,147.600 85.413 C 147.600 80.316,145.336 78.348,142.089 80.623 C 141.284 81.186,141.200 81.186,141.200 80.623 C 141.200 79.932,139.395 79.762,138.446 80.363 M182.998 80.403 C 182.861 80.624,183.031 80.914,183.375 81.046 C 184.311 81.405,184.280 88.627,183.338 89.669 C 182.705 90.368,182.765 90.400,184.714 90.400 C 186.749 90.400,187.743 89.894,186.583 89.449 C 186.081 89.256,185.991 88.540,186.085 85.507 L 186.200 81.800 187.526 81.673 C 189.666 81.467,190.000 82.047,190.000 85.969 C 190.000 88.135,189.820 89.620,189.520 89.920 C 189.147 90.293,189.453 90.400,190.896 90.400 C 192.767 90.400,193.704 89.879,192.598 89.454 C 192.125 89.273,192.000 88.426,192.000 85.413 L 192.000 81.600 193.586 81.600 C 194.745 81.600,195.283 81.808,195.586 82.374 C 196.116 83.365,196.128 89.074,195.600 89.400 C 194.698 89.958,195.306 90.400,196.976 90.400 C 198.745 90.400,199.692 89.874,198.647 89.473 C 198.252 89.322,198.051 88.192,197.932 85.454 C 197.721 80.645,197.164 79.809,194.408 80.173 C 192.101 80.477,191.376 80.477,189.344 80.173 C 188.383 80.029,187.334 80.114,186.844 80.376 C 186.287 80.675,186.000 80.688,186.000 80.414 C 186.000 79.881,183.327 79.871,182.998 80.403 M335.646 80.363 C 335.203 80.643,335.264 80.806,335.946 81.171 C 337.050 81.762,337.273 88.933,336.200 89.345 C 334.930 89.832,335.684 90.400,337.600 90.400 C 339.516 90.400,340.270 89.832,339.000 89.345 C 338.099 88.999,338.129 82.190,339.033 81.843 C 340.344 81.339,341.970 81.597,342.386 82.374 C 342.922 83.375,342.934 89.600,342.400 89.600 C 342.180 89.600,342.000 89.780,342.000 90.000 C 342.000 90.496,345.470 90.535,345.774 90.042 C 345.896 89.845,345.726 89.581,345.398 89.454 C 344.929 89.275,344.800 88.455,344.800 85.666 C 344.800 80.504,343.216 78.949,339.426 80.390 C 338.759 80.644,338.400 80.644,338.400 80.390 C 338.400 79.906,336.398 79.887,335.646 80.363 M155.511 81.423 C 157.362 82.719,156.540 86.400,154.400 86.400 C 152.323 86.400,151.539 83.261,153.200 81.600 C 154.163 80.637,154.367 80.621,155.511 81.423 M252.419 82.650 C 252.629 83.201,252.800 83.730,252.800 83.826 C 252.800 83.922,251.810 84.000,250.600 84.000 C 248.038 84.000,247.594 83.092,249.443 81.638 C 250.679 80.665,251.811 81.050,252.419 82.650 M279.111 81.423 C 280.951 82.711,280.295 84.000,277.800 84.000 C 276.590 84.000,275.600 83.901,275.600 83.780 C 275.600 83.231,276.835 81.252,277.292 81.068 C 278.089 80.747,278.169 80.763,279.111 81.423 M308.000 81.600 C 309.565 83.165,309.078 84.000,306.600 84.000 C 304.068 84.000,303.748 83.416,305.382 81.782 C 306.572 80.592,306.964 80.564,308.000 81.600 M167.200 84.810 C 167.200 88.684,166.522 89.674,164.343 88.982 C 160.945 87.903,162.266 81.200,165.876 81.200 L 167.200 81.200 167.200 84.810 M178.410 82.300 C 179.487 83.665,179.372 87.105,178.206 88.394 C 176.407 90.381,173.599 88.583,173.601 85.446 C 173.605 81.730,176.477 79.851,178.410 82.300 M211.194 81.597 C 211.602 81.815,212.145 82.626,212.399 83.398 C 213.751 87.493,209.676 91.311,207.596 87.900 C 205.470 84.414,208.042 79.910,211.194 81.597 M354.000 84.751 L 354.000 88.303 352.802 88.799 C 350.433 89.780,348.692 87.285,349.406 83.931 C 349.824 81.967,350.682 81.200,352.462 81.200 L 354.000 81.200 354.000 84.751 M331.200 87.168 C 331.200 88.590,331.087 88.761,329.984 89.004 C 327.536 89.541,326.626 87.185,328.900 86.196 C 330.926 85.316,331.200 85.432,331.200 87.168 M157.525 92.277 C 157.760 93.927,153.925 95.077,152.300 93.843 C 150.470 92.454,151.864 91.131,154.997 91.283 C 157.123 91.387,157.414 91.501,157.525 92.277 " stroke="none" fill="#000000" fill-rule="evenodd"></path><path id="path1" d="M69.404 69.593 C 69.266 69.817,69.271 70.192,69.417 70.427 C 69.573 70.680,69.396 70.802,68.982 70.727 C 68.597 70.657,68.195 70.852,68.088 71.161 C 67.947 71.566,68.129 71.659,68.746 71.498 C 69.778 71.228,69.793 71.349,68.914 72.838 C 67.907 74.543,69.096 75.882,70.432 74.546 C 71.186 73.792,71.204 73.661,70.630 73.087 C 69.877 72.334,69.797 71.266,70.500 71.344 C 70.775 71.375,71.005 71.220,71.012 71.000 C 71.018 70.780,70.769 70.659,70.458 70.730 C 70.090 70.815,69.974 70.644,70.128 70.243 C 70.400 69.534,69.783 68.981,69.404 69.593 M64.900 74.833 C 63.691 75.291,63.735 76.929,65.010 79.000 C 65.552 79.880,65.997 80.825,65.998 81.100 C 66.001 81.926,64.874 81.663,64.591 80.771 C 64.436 80.282,64.101 80.029,63.775 80.154 C 63.189 80.379,62.000 78.992,62.000 78.084 C 62.000 77.718,62.271 77.632,62.847 77.815 C 63.460 78.009,63.645 77.934,63.514 77.542 C 63.415 77.244,62.808 77.000,62.167 77.000 C 60.572 77.000,60.387 78.549,61.790 80.162 C 62.345 80.801,62.800 81.489,62.800 81.691 C 62.800 81.892,63.070 82.327,63.400 82.657 C 63.730 82.987,64.000 83.667,64.000 84.168 C 64.000 85.054,64.063 85.069,66.300 84.704 C 68.549 84.337,73.631 84.530,74.941 85.033 C 75.450 85.228,75.600 85.046,75.600 84.235 C 75.600 83.657,76.095 82.442,76.700 81.535 C 78.510 78.821,78.717 78.367,78.507 77.566 C 78.306 76.797,77.411 76.591,76.235 77.042 C 75.888 77.175,75.699 77.437,75.815 77.624 C 75.931 77.812,76.290 77.864,76.613 77.740 C 77.316 77.470,77.399 78.481,76.769 79.657 C 76.509 80.143,76.098 80.370,75.732 80.229 C 75.343 80.080,75.051 80.283,74.916 80.798 C 74.659 81.784,73.595 81.867,73.612 80.900 C 73.619 80.515,74.068 79.480,74.610 78.600 C 75.855 76.579,75.854 75.785,74.605 74.967 C 73.371 74.158,70.929 75.315,71.595 76.392 C 71.899 76.884,72.061 76.868,72.707 76.284 C 73.698 75.388,74.000 75.421,74.000 76.426 C 74.000 77.590,73.279 78.800,72.586 78.800 C 72.226 78.800,72.000 79.190,72.000 79.813 C 72.000 80.933,70.995 81.555,70.303 80.863 C 69.978 80.538,70.038 80.221,70.529 79.678 C 71.571 78.527,71.342 78.000,69.800 78.000 C 68.396 78.000,67.685 79.295,68.872 79.691 C 69.616 79.939,68.896 81.277,68.101 81.122 C 67.596 81.023,67.436 80.679,67.529 79.893 C 67.630 79.030,67.492 78.800,66.871 78.800 C 66.015 78.800,65.600 78.072,65.600 76.567 C 65.600 75.468,66.071 75.322,66.796 76.196 C 67.267 76.762,68.000 76.681,68.000 76.063 C 68.000 75.378,65.782 74.499,64.900 74.833 M68.929 76.240 C 68.588 77.129,69.653 77.718,70.347 77.024 C 70.648 76.723,70.773 76.279,70.624 76.038 C 70.221 75.387,69.210 75.508,68.929 76.240 M49.200 83.205 C 49.200 83.368,49.470 83.726,49.800 84.000 C 50.130 84.274,50.400 84.690,50.400 84.925 C 50.400 85.161,50.167 85.034,49.882 84.645 C 49.521 84.151,48.955 83.977,48.006 84.069 C 46.741 84.191,46.694 84.245,47.314 84.861 C 47.885 85.428,47.896 85.554,47.390 85.749 C 46.990 85.902,46.800 86.559,46.800 87.787 C 46.800 88.784,46.620 89.600,46.400 89.600 C 45.676 89.600,45.983 90.302,46.800 90.516 C 47.689 90.748,47.900 92.192,47.100 92.569 C 46.825 92.698,47.112 92.735,47.738 92.650 C 48.796 92.507,48.864 92.580,48.704 93.669 C 48.498 95.074,49.656 95.984,50.626 95.179 C 51.034 94.840,51.200 94.832,51.200 95.151 C 51.200 95.834,52.362 95.692,54.692 94.726 C 57.735 93.465,57.116 91.099,53.431 89.908 C 51.605 89.317,50.826 88.119,52.548 88.551 C 53.338 88.750,53.600 88.664,53.600 88.208 C 53.600 87.867,53.249 87.600,52.800 87.600 C 52.356 87.600,52.000 87.333,52.000 87.000 C 52.000 86.623,52.380 86.400,53.024 86.400 C 53.587 86.400,53.949 86.559,53.829 86.754 C 53.533 87.232,55.832 88.150,56.593 87.858 C 57.791 87.398,57.188 86.852,55.742 87.087 C 54.345 87.314,54.292 87.280,54.480 86.292 C 54.635 85.483,54.415 85.066,53.464 84.363 C 52.255 83.469,49.200 82.639,49.200 83.205 M88.834 83.127 C 86.766 83.329,84.742 85.029,85.060 86.295 C 85.300 87.252,85.241 87.292,83.849 87.130 C 82.937 87.023,82.438 87.117,82.525 87.380 C 82.778 88.151,84.340 88.060,85.175 87.225 C 86.077 86.323,87.004 86.159,87.417 86.827 C 87.562 87.062,87.303 87.353,86.840 87.474 C 86.378 87.594,86.000 87.954,86.000 88.274 C 86.000 88.683,86.250 88.775,86.847 88.585 C 87.459 88.391,87.645 88.467,87.517 88.858 C 87.420 89.156,86.740 89.598,86.006 89.841 C 82.458 91.013,81.738 93.400,84.540 94.700 C 86.628 95.669,88.400 95.876,88.400 95.151 C 88.400 94.832,88.566 94.840,88.974 95.179 C 89.888 95.937,91.340 95.009,90.805 94.010 C 90.209 92.895,90.277 92.800,91.676 92.800 C 92.810 92.800,92.875 92.743,92.255 92.289 C 91.387 91.655,91.777 90.400,92.843 90.400 C 93.750 90.400,93.847 89.780,92.990 89.452 C 92.569 89.290,92.456 88.915,92.626 88.238 C 92.972 86.859,92.481 85.600,91.597 85.600 C 91.184 85.600,90.756 85.452,90.643 85.270 C 90.531 85.089,90.818 84.954,91.279 84.970 C 91.741 84.987,92.197 84.775,92.293 84.500 C 92.406 84.175,92.062 84.000,91.313 84.000 C 90.679 84.000,89.904 84.225,89.591 84.500 C 89.277 84.775,89.360 84.594,89.775 84.098 C 90.673 83.022,90.606 82.953,88.834 83.127 M60.000 86.922 C 59.670 87.195,59.207 87.764,58.971 88.185 C 58.736 88.607,58.016 89.123,57.371 89.331 C 55.792 89.841,55.801 89.820,56.703 90.967 C 57.495 91.974,57.499 91.975,58.223 91.174 C 58.623 90.733,59.186 90.462,59.475 90.573 C 59.795 90.696,60.000 90.477,60.000 90.011 C 60.000 89.591,60.180 89.136,60.400 89.000 C 60.657 88.841,60.800 90.329,60.800 93.176 C 60.800 98.092,60.827 98.052,58.629 96.389 C 56.763 94.977,55.930 94.920,53.602 96.045 C 52.163 96.740,51.618 96.817,50.524 96.481 C 48.952 95.999,48.415 96.544,47.373 99.682 C 46.814 101.364,46.598 101.600,45.617 101.600 C 43.332 101.600,43.225 100.289,45.276 97.440 C 47.470 94.394,46.384 92.400,42.531 92.400 C 40.961 92.400,40.338 92.225,40.032 91.700 C 39.678 91.092,39.623 91.134,39.612 92.020 C 39.598 93.206,40.262 94.000,41.267 94.000 C 41.770 94.000,41.902 94.202,41.723 94.700 C 41.528 95.244,41.700 95.192,42.497 94.467 C 44.946 92.238,46.628 94.524,44.403 97.058 C 41.622 100.225,42.217 103.200,45.631 103.200 C 46.845 103.200,46.874 103.236,46.315 104.078 C 45.433 105.405,44.449 105.915,44.039 105.257 C 43.824 104.913,43.607 104.864,43.446 105.125 C 43.307 105.351,43.445 105.788,43.753 106.096 C 44.156 106.499,44.201 106.855,43.912 107.371 C 43.692 107.765,43.624 108.792,43.762 109.654 C 43.953 110.847,43.869 111.275,43.409 111.452 C 42.499 111.801,43.141 112.473,44.094 112.170 C 44.709 111.975,44.865 112.054,44.702 112.477 C 44.528 112.932,44.962 113.042,46.860 113.024 C 48.893 113.003,49.211 112.902,49.060 112.319 C 48.964 111.945,49.078 111.574,49.313 111.496 C 49.549 111.417,49.602 111.127,49.430 110.849 C 49.259 110.572,48.876 110.439,48.580 110.552 C 48.233 110.685,48.120 110.553,48.263 110.180 C 48.533 109.477,47.558 109.402,46.887 110.073 C 46.171 110.789,45.802 110.124,46.232 108.892 C 46.580 107.896,49.091 106.317,51.696 105.458 C 52.317 105.253,52.284 105.121,51.396 104.232 C 49.060 101.896,53.080 96.842,56.511 97.802 C 58.044 98.230,59.181 98.907,58.963 99.260 C 58.847 99.447,59.053 99.600,59.419 99.600 C 59.873 99.600,60.005 99.810,59.834 100.257 C 59.623 100.806,59.682 100.830,60.191 100.408 C 60.722 99.967,60.800 100.151,60.800 101.851 C 60.801 104.426,61.649 105.353,66.200 107.757 L 69.800 109.658 73.200 107.827 C 77.470 105.529,78.800 104.146,78.800 102.006 C 78.800 100.760,78.928 100.474,79.405 100.657 C 79.837 100.823,79.939 100.706,79.762 100.245 C 79.595 99.811,79.732 99.600,80.181 99.600 C 80.547 99.600,80.734 99.416,80.595 99.192 C 80.195 98.545,83.111 97.517,84.486 97.819 C 87.840 98.556,90.150 103.009,87.971 104.536 C 87.413 104.926,87.291 105.209,87.597 105.398 C 87.848 105.553,88.155 105.578,88.280 105.453 C 88.405 105.328,88.957 105.580,89.508 106.013 C 90.058 106.446,90.729 106.800,90.999 106.800 C 91.759 106.800,93.600 108.820,93.600 109.655 C 93.600 110.440,92.621 110.682,92.200 110.000 C 92.064 109.780,91.671 109.600,91.327 109.600 C 90.790 109.600,90.780 109.695,91.251 110.275 C 91.728 110.861,91.714 110.918,91.149 110.706 C 90.791 110.572,90.296 110.664,90.049 110.911 C 89.429 111.531,89.486 112.019,90.149 111.764 C 90.557 111.608,90.652 111.842,90.518 112.677 C 90.388 113.486,90.446 113.644,90.727 113.243 C 91.003 112.850,91.647 112.746,92.926 112.890 C 94.412 113.058,94.694 112.988,94.507 112.501 C 94.339 112.064,94.479 111.970,95.039 112.145 C 95.458 112.275,96.070 112.209,96.400 111.997 C 96.919 111.664,96.910 111.611,96.334 111.606 C 95.631 111.600,95.044 106.540,95.700 106.137 C 95.865 106.036,96.000 105.569,96.000 105.100 C 96.000 104.293,95.972 104.286,95.468 104.974 C 94.828 105.850,93.426 105.308,93.099 104.057 C 92.936 103.435,93.161 103.246,94.285 103.064 C 97.110 102.605,97.726 100.294,95.659 97.914 C 92.952 94.798,93.993 91.593,96.800 94.400 C 97.422 95.022,97.600 95.067,97.600 94.600 C 97.600 94.270,97.924 94.000,98.320 94.000 C 99.242 94.000,100.000 93.242,100.000 92.320 C 100.000 91.542,99.401 91.351,99.000 92.000 C 98.864 92.220,97.903 92.400,96.865 92.400 C 93.121 92.400,92.135 94.586,94.434 97.788 C 96.072 100.069,95.934 101.400,94.060 101.400 C 92.827 101.400,92.671 101.256,92.119 99.600 C 91.246 96.984,90.507 96.291,88.912 96.590 C 88.015 96.758,87.011 96.577,85.748 96.018 C 83.376 94.969,82.558 94.988,81.038 96.128 C 78.699 97.883,78.796 98.007,78.846 93.324 C 78.872 90.946,78.972 89.270,79.068 89.600 C 79.454 90.920,82.025 91.657,82.824 90.676 C 83.524 89.817,83.515 89.792,82.390 89.400 C 81.758 89.180,80.671 88.415,79.973 87.700 C 78.593 86.285,77.878 86.016,78.280 87.064 C 78.490 87.612,78.365 87.677,77.567 87.438 C 75.273 86.749,69.932 86.312,67.071 86.581 L 64.000 86.868 64.000 88.434 C 64.000 89.559,63.831 90.000,63.400 90.000 C 62.980 90.000,62.800 89.577,62.800 88.592 C 62.800 87.257,62.744 87.199,61.700 87.459 C 60.708 87.706,60.654 87.667,61.149 87.066 C 61.834 86.234,60.963 86.125,60.000 86.922 M66.638 90.186 C 66.067 90.934,65.600 91.674,65.600 91.829 C 65.600 91.985,65.285 92.351,64.900 92.643 C 64.271 93.121,64.330 93.176,65.476 93.187 C 66.784 93.200,67.524 93.753,66.818 94.189 C 66.601 94.323,65.878 94.151,65.212 93.806 C 64.524 93.451,64.000 93.357,64.000 93.590 C 64.000 93.815,63.814 94.000,63.586 94.000 C 63.306 94.000,63.301 93.759,63.572 93.253 C 63.792 92.842,63.843 92.363,63.686 92.188 C 63.529 92.014,63.656 92.020,63.968 92.201 C 64.395 92.449,64.470 92.361,64.273 91.845 C 64.128 91.467,64.161 91.252,64.346 91.367 C 64.531 91.481,65.283 90.738,66.017 89.716 C 66.752 88.694,67.425 88.075,67.514 88.341 C 67.603 88.608,67.208 89.438,66.638 90.186 M72.382 88.611 C 72.612 88.469,72.800 88.633,72.800 88.976 C 72.800 89.319,73.025 89.614,73.300 89.632 C 73.624 89.652,73.644 89.727,73.356 89.846 C 73.065 89.966,73.013 90.575,73.203 91.615 C 73.362 92.487,73.337 93.200,73.146 93.200 C 72.956 93.200,72.800 93.481,72.800 93.824 C 72.800 94.167,72.620 94.336,72.400 94.200 C 72.180 94.064,72.000 94.323,72.000 94.776 C 72.000 95.913,69.420 95.766,67.643 94.529 C 67.278 94.275,68.558 93.200,69.225 93.200 C 70.184 93.200,70.650 92.404,69.951 91.961 C 69.552 91.709,69.538 91.611,69.900 91.606 C 70.767 91.596,70.441 90.862,69.500 90.707 C 68.656 90.567,68.681 90.509,69.901 89.779 C 70.686 89.308,71.118 88.780,70.991 88.443 C 70.822 87.995,70.896 87.982,71.373 88.378 C 71.699 88.648,72.153 88.753,72.382 88.611 M76.400 91.200 C 76.400 92.356,76.233 92.800,75.800 92.800 C 75.367 92.800,75.200 92.356,75.200 91.200 C 75.200 90.044,75.367 89.600,75.800 89.600 C 76.233 89.600,76.400 90.044,76.400 91.200 M77.600 95.013 C 77.600 95.509,75.772 95.886,75.283 95.491 C 74.412 94.788,73.718 95.820,74.477 96.691 C 75.867 98.285,75.491 100.000,73.753 100.000 C 72.539 100.000,72.640 100.814,73.926 101.395 C 74.407 101.612,74.800 102.004,74.800 102.266 C 74.800 102.528,75.083 103.026,75.429 103.371 C 76.000 103.943,75.998 104.000,75.405 104.000 C 75.046 104.000,74.864 104.180,75.000 104.400 C 75.136 104.620,74.877 104.800,74.424 104.800 C 73.971 104.800,73.587 105.025,73.572 105.300 C 73.556 105.575,73.395 105.440,73.213 105.000 C 72.990 104.462,73.065 104.055,73.441 103.756 C 74.317 103.060,74.127 102.844,72.223 102.364 C 70.659 101.970,70.499 101.831,70.890 101.204 C 72.181 99.137,69.427 96.760,66.705 97.591 C 65.767 97.878,65.215 98.189,65.478 98.282 C 66.106 98.505,65.674 99.600,64.957 99.600 C 64.445 99.600,64.219 99.095,64.363 98.270 C 64.394 98.089,64.272 98.032,64.091 98.144 C 63.344 98.606,62.705 97.725,63.165 96.866 C 63.644 95.971,64.670 96.076,64.877 97.041 C 64.971 97.480,65.342 97.370,66.460 96.571 C 67.651 95.721,68.070 95.609,68.734 95.965 C 69.181 96.204,70.094 96.400,70.762 96.400 C 71.797 96.400,72.027 96.593,72.314 97.699 C 72.510 98.457,72.950 99.056,73.368 99.137 C 74.574 99.369,74.894 98.629,74.149 97.330 C 73.127 95.550,73.613 94.800,75.787 94.800 C 76.784 94.800,77.600 94.896,77.600 95.013 M69.413 98.706 C 70.101 99.195,69.860 99.881,68.670 100.817 C 67.829 101.478,67.598 101.936,67.766 102.607 C 67.938 103.292,67.791 103.561,67.156 103.727 C 66.696 103.848,66.418 104.106,66.539 104.301 C 66.659 104.496,66.257 104.582,65.646 104.492 C 65.032 104.402,64.533 104.076,64.533 103.764 C 64.533 103.208,64.917 103.042,65.905 103.171 C 66.635 103.267,66.932 102.195,66.434 101.264 C 65.805 100.088,68.320 97.929,69.413 98.706 M52.458 100.428 C 51.866 100.665,51.600 101.022,51.741 101.390 C 51.864 101.711,51.780 102.089,51.554 102.229 C 51.327 102.369,52.077 102.916,53.220 103.446 C 55.456 104.482,55.840 106.217,54.118 107.500 C 53.397 108.037,53.700 108.158,55.434 108.024 C 56.383 107.951,57.399 108.955,57.011 109.582 C 56.690 110.101,57.034 110.106,58.772 109.608 C 59.718 109.337,60.301 109.352,60.669 109.657 C 61.377 110.245,61.404 109.180,60.700 108.421 C 60.292 107.981,60.329 107.928,60.900 108.129 C 61.285 108.264,61.600 108.184,61.600 107.950 C 61.600 107.716,61.225 107.427,60.766 107.307 C 60.132 107.141,60.060 107.008,60.466 106.751 C 60.873 106.493,60.880 106.411,60.495 106.406 C 60.217 106.403,59.634 106.621,59.201 106.892 C 57.871 107.723,57.013 106.536,57.724 104.847 C 58.024 104.131,58.430 103.571,58.625 103.603 C 58.820 103.634,59.053 103.441,59.142 103.174 C 59.231 102.907,59.113 102.807,58.880 102.951 C 58.646 103.095,58.335 103.018,58.188 102.780 C 57.049 100.937,54.154 99.749,52.458 100.428 M84.176 100.514 C 83.722 100.781,82.711 101.521,81.928 102.159 L 80.504 103.317 81.464 104.732 C 82.628 106.448,81.936 107.852,80.399 106.892 C 79.262 106.182,78.577 106.249,79.208 107.009 C 79.625 107.512,79.610 107.579,79.121 107.391 C 78.795 107.266,78.274 107.475,77.964 107.857 C 77.464 108.471,77.480 108.520,78.105 108.286 C 78.705 108.061,78.770 108.183,78.539 109.111 C 78.306 110.045,78.353 110.130,78.865 109.708 C 79.299 109.351,79.837 109.324,80.828 109.608 C 81.580 109.824,82.228 110.000,82.270 110.000 C 82.311 110.000,82.402 109.595,82.472 109.100 C 82.570 108.408,82.877 108.189,83.800 108.154 C 85.641 108.083,85.702 108.044,85.029 107.371 C 83.524 105.867,84.312 104.087,86.886 103.175 C 88.015 102.776,88.271 102.527,87.952 102.142 C 87.720 101.863,87.647 101.447,87.790 101.217 C 88.354 100.303,85.481 99.745,84.176 100.514 M70.800 106.000 C 70.800 107.156,70.633 107.600,70.200 107.600 C 69.767 107.600,69.600 107.156,69.600 106.000 C 69.600 104.844,69.767 104.400,70.200 104.400 C 70.633 104.400,70.800 104.844,70.800 106.000 M61.732 111.254 C 55.602 111.723,55.200 111.906,55.200 114.237 C 55.200 115.973,55.259 116.076,56.100 115.833 C 60.386 114.592,81.205 114.718,83.599 115.999 C 84.351 116.402,84.400 116.305,84.400 114.404 C 84.400 111.844,84.239 111.775,76.926 111.221 C 70.744 110.754,68.212 110.759,61.732 111.254 M46.629 115.029 C 46.283 115.374,46.000 116.080,46.000 116.596 C 46.000 117.112,45.883 117.840,45.739 118.214 C 45.516 118.795,45.599 118.829,46.313 118.447 C 47.485 117.819,50.364 117.891,53.604 118.628 C 57.572 119.531,58.567 119.341,58.729 117.650 L 58.858 116.300 57.329 116.581 C 56.488 116.736,55.629 117.028,55.420 117.231 C 54.751 117.880,54.454 117.632,54.325 116.316 C 54.177 114.798,53.448 114.500,49.729 114.440 C 47.973 114.412,47.075 114.582,46.629 115.029 M86.300 114.667 C 85.410 114.818,85.200 115.064,85.200 115.960 C 85.200 117.264,84.844 117.734,84.237 117.232 C 82.843 116.082,80.800 116.281,80.800 117.568 C 80.800 119.310,81.500 119.456,85.802 118.610 C 87.976 118.183,90.341 117.969,91.583 118.089 L 93.685 118.291 93.424 116.660 C 93.281 115.764,93.072 114.939,92.960 114.827 C 92.687 114.554,87.679 114.433,86.300 114.667 " stroke="none" fill="#ffffff" fill-rule="evenodd"></path><path id="path2" d="M34.800 69.600 L 34.800 139.200 69.800 139.200 L 104.800 139.200 104.800 69.600 L 104.800 0.000 69.800 0.000 L 34.800 0.000 34.800 69.600 M70.153 70.090 C 70.128 70.422,70.378 70.672,70.710 70.647 C 71.042 70.621,71.402 70.852,71.511 71.161 C 71.653 71.566,71.471 71.660,70.854 71.498 C 69.840 71.233,69.607 72.564,70.600 72.945 C 71.470 73.278,71.336 74.299,70.353 74.825 C 68.911 75.597,68.015 74.360,68.914 72.838 C 69.786 71.361,69.775 71.229,68.800 71.484 C 68.227 71.634,68.000 71.496,68.000 71.000 C 68.000 70.519,68.230 70.367,68.749 70.503 C 69.340 70.657,69.454 70.528,69.289 69.896 C 69.140 69.326,69.242 69.150,69.639 69.289 C 69.948 69.398,70.179 69.758,70.153 70.090 M66.943 75.000 C 67.273 75.330,67.736 75.600,67.971 75.600 C 68.643 75.600,68.473 76.397,67.742 76.678 C 67.340 76.832,66.875 76.644,66.546 76.194 C 65.805 75.180,65.453 75.692,65.761 77.335 C 65.943 78.303,66.223 78.692,66.709 78.654 C 67.219 78.614,67.404 78.914,67.415 79.797 C 67.424 80.575,67.656 81.038,68.077 81.119 C 68.948 81.287,69.381 80.500,68.801 79.802 C 68.042 78.887,68.489 77.900,69.722 77.769 C 71.032 77.630,71.570 78.516,70.863 79.648 C 70.200 80.710,70.291 81.280,71.100 81.122 C 71.542 81.036,71.800 80.619,71.800 79.993 C 71.800 79.354,72.113 78.862,72.678 78.615 C 73.583 78.217,74.218 76.676,73.773 75.956 C 73.617 75.703,73.227 75.813,72.751 76.244 C 72.176 76.765,71.866 76.826,71.527 76.487 C 70.992 75.952,72.561 74.435,73.671 74.413 C 74.569 74.396,75.600 75.473,75.600 76.429 C 75.600 77.249,76.188 77.467,76.600 76.800 C 77.021 76.119,77.949 76.358,78.438 77.272 C 78.916 78.165,77.944 80.800,77.137 80.800 C 76.952 80.800,76.800 81.083,76.800 81.429 C 76.800 81.774,76.530 82.327,76.200 82.657 C 75.870 82.987,75.600 83.691,75.600 84.221 C 75.600 85.235,75.266 85.262,70.800 84.616 C 70.250 84.537,68.540 84.607,67.000 84.774 C 64.015 85.096,63.617 84.923,63.606 83.300 C 63.603 82.805,63.420 82.400,63.200 82.400 C 62.980 82.400,62.800 82.201,62.800 81.958 C 62.800 81.715,62.350 80.981,61.800 80.327 C 60.128 78.340,60.927 75.538,62.827 76.724 C 63.885 77.385,64.000 77.336,64.000 76.220 C 64.000 74.647,65.831 73.888,66.943 75.000 M70.716 76.450 C 70.845 77.131,69.788 77.764,69.164 77.378 C 68.964 77.254,68.800 76.791,68.800 76.349 C 68.800 75.351,70.524 75.442,70.716 76.450 M62.400 78.587 C 62.400 79.659,63.119 80.406,63.873 80.117 C 64.233 79.979,64.531 80.214,64.671 80.748 C 64.939 81.774,65.601 81.883,65.597 80.900 C 65.593 79.783,64.125 77.861,63.225 77.794 C 62.631 77.751,62.400 77.972,62.400 78.587 M74.451 79.279 C 73.983 80.093,73.600 80.948,73.600 81.179 C 73.600 81.958,74.704 81.609,74.926 80.760 C 75.056 80.264,75.332 80.034,75.600 80.200 C 76.110 80.515,77.168 79.317,77.187 78.400 C 77.214 77.134,75.339 77.737,74.451 79.279 M53.505 84.211 C 54.611 84.880,54.774 85.168,54.573 86.100 C 54.309 87.327,55.709 87.711,56.759 86.700 C 57.179 86.296,57.248 86.353,57.124 87.000 C 56.995 87.671,56.698 87.783,55.285 87.693 C 53.968 87.609,53.600 87.724,53.600 88.220 C 53.600 88.684,53.373 88.782,52.753 88.585 C 51.342 88.137,52.079 89.288,53.514 89.772 C 55.810 90.548,58.279 94.400,56.480 94.400 C 56.114 94.400,54.856 94.798,53.683 95.284 C 51.956 96.000,51.488 96.066,51.220 95.633 C 51.038 95.338,50.688 95.222,50.441 95.375 C 49.413 96.010,48.340 95.185,48.608 93.965 C 48.842 92.896,48.772 92.800,47.752 92.800 C 46.887 92.800,46.747 92.693,47.120 92.320 C 47.768 91.672,47.728 90.800,47.049 90.800 C 46.746 90.800,46.274 90.530,46.000 90.200 C 45.592 89.709,45.620 89.600,46.151 89.600 C 46.652 89.600,46.800 89.196,46.800 87.824 C 46.800 86.847,46.989 85.931,47.219 85.788 C 47.504 85.612,47.480 85.337,47.145 84.934 C 46.545 84.211,47.377 83.488,48.500 83.757 C 48.885 83.850,49.200 83.705,49.200 83.436 C 49.200 82.740,51.867 83.221,53.505 84.211 M90.925 83.782 C 91.806 83.460,92.610 84.265,92.064 84.923 C 91.678 85.388,91.703 85.554,92.190 85.741 C 92.613 85.903,92.800 86.532,92.800 87.787 C 92.800 88.784,92.980 89.600,93.200 89.600 C 93.933 89.600,93.612 90.472,92.800 90.684 C 91.919 90.915,91.708 92.216,92.500 92.535 C 92.775 92.646,92.415 92.751,91.700 92.768 C 90.275 92.803,90.209 92.895,90.805 94.010 C 91.259 94.857,90.018 95.846,88.995 95.453 C 88.696 95.339,88.380 95.460,88.292 95.722 C 88.179 96.062,87.505 95.940,85.959 95.300 C 84.763 94.805,83.473 94.400,83.092 94.400 C 81.138 94.400,83.230 90.723,85.642 89.919 C 86.581 89.606,87.428 89.117,87.522 88.833 C 87.644 88.469,87.445 88.395,86.847 88.585 C 86.221 88.784,86.000 88.684,86.000 88.202 C 86.000 87.657,85.707 87.595,84.200 87.821 C 82.493 88.077,82.402 88.042,82.432 87.145 C 82.449 86.625,82.554 86.425,82.665 86.700 C 83.119 87.827,85.196 87.289,84.981 86.100 C 84.660 84.324,89.881 81.757,90.325 83.473 C 90.394 83.738,90.664 83.878,90.925 83.782 M52.278 86.656 C 51.904 87.029,52.355 87.600,53.024 87.600 C 53.341 87.600,53.600 87.330,53.600 87.000 C 53.600 86.398,52.756 86.178,52.278 86.656 M61.364 86.949 C 61.209 87.353,61.424 87.446,62.177 87.302 C 63.122 87.122,63.200 87.217,63.200 88.553 C 63.200 89.349,63.380 90.000,63.600 90.000 C 63.820 90.000,64.000 89.303,64.000 88.450 C 64.000 87.034,64.108 86.878,65.250 86.650 C 67.359 86.228,73.265 86.399,75.866 86.957 C 77.938 87.402,78.298 87.400,78.123 86.943 C 77.749 85.969,78.903 86.372,79.998 87.598 C 80.587 88.257,81.713 89.022,82.502 89.298 L 83.937 89.800 83.001 90.884 C 82.084 91.947,82.049 91.954,81.133 91.243 C 80.620 90.845,79.989 90.593,79.731 90.683 C 79.473 90.773,79.182 90.431,79.085 89.923 C 78.988 89.415,78.884 90.956,78.854 93.347 L 78.800 97.695 80.173 96.648 C 82.432 94.925,83.244 94.768,85.235 95.668 C 86.462 96.224,87.528 96.410,88.733 96.279 C 90.616 96.075,91.645 97.073,92.212 99.656 C 92.533 101.117,93.372 101.744,94.595 101.437 C 95.994 101.086,95.912 99.584,94.399 97.860 C 91.782 94.879,92.729 92.400,96.484 92.400 C 97.833 92.400,98.788 92.173,99.269 91.738 C 99.958 91.114,100.000 91.132,100.000 92.058 C 100.000 93.234,99.321 94.000,98.277 94.000 C 97.764 94.000,97.590 94.196,97.745 94.600 C 98.075 95.461,97.497 95.339,96.671 94.375 C 94.504 91.844,93.294 94.668,95.377 97.397 C 96.159 98.422,96.821 99.562,96.847 99.931 C 96.991 101.959,96.272 102.815,94.127 103.169 L 92.600 103.421 93.753 104.582 C 94.857 105.693,94.930 105.711,95.453 104.995 C 95.965 104.294,96.000 104.315,96.000 105.324 C 96.000 105.916,95.814 106.400,95.586 106.400 C 95.308 106.400,95.315 106.668,95.608 107.215 C 95.867 107.698,95.935 108.757,95.777 109.815 C 95.551 111.324,95.613 111.600,96.178 111.600 C 96.558 111.600,96.731 111.788,96.578 112.035 C 96.431 112.274,95.956 112.377,95.523 112.264 C 94.947 112.113,94.798 112.217,94.965 112.653 C 95.155 113.148,94.891 113.203,93.393 112.978 C 92.248 112.806,91.393 112.874,91.043 113.164 C 90.316 113.768,89.859 112.718,90.531 111.990 C 90.900 111.591,90.850 111.535,90.300 111.729 C 89.391 112.048,89.410 111.542,90.347 110.461 C 91.181 109.499,92.004 109.364,92.713 110.073 C 93.499 110.859,93.821 110.030,93.177 108.877 C 92.846 108.285,91.861 107.440,90.988 107.000 C 90.115 106.560,89.310 106.083,89.200 105.940 C 89.090 105.798,88.564 105.618,88.031 105.540 C 87.499 105.463,86.980 105.150,86.879 104.844 C 86.775 104.529,86.877 104.401,87.116 104.548 C 87.773 104.954,88.800 103.660,88.800 102.425 C 88.800 100.295,86.123 98.000,83.639 98.000 C 82.200 98.000,80.340 98.780,80.636 99.258 C 80.752 99.446,80.547 99.600,80.181 99.600 C 79.732 99.600,79.595 99.811,79.762 100.245 C 79.939 100.706,79.837 100.823,79.405 100.657 C 78.931 100.476,78.800 100.751,78.800 101.924 C 78.800 104.240,77.665 105.619,74.400 107.267 C 73.410 107.766,71.970 108.560,71.199 109.030 L 69.798 109.885 66.023 107.792 C 61.524 105.297,60.800 104.518,60.800 102.168 C 60.800 100.703,60.693 100.466,60.131 100.682 C 59.623 100.877,59.523 100.777,59.718 100.269 C 59.859 99.901,59.801 99.600,59.587 99.600 C 59.374 99.600,58.819 99.219,58.354 98.754 C 55.734 96.134,49.067 100.434,50.870 103.580 C 51.192 104.141,51.743 104.577,52.096 104.550 C 52.486 104.519,52.654 104.715,52.526 105.050 C 52.409 105.352,52.011 105.600,51.640 105.600 C 50.207 105.600,46.624 107.782,46.234 108.892 C 45.802 110.123,46.170 110.790,46.887 110.073 C 47.147 109.813,47.641 109.600,47.984 109.600 C 48.717 109.600,49.907 111.298,49.313 111.496 C 49.095 111.568,49.001 112.072,49.105 112.614 C 49.214 113.186,49.106 113.600,48.847 113.600 C 48.601 113.600,48.400 113.395,48.400 113.144 C 48.400 112.833,47.772 112.763,46.421 112.923 C 44.710 113.126,44.475 113.070,44.689 112.513 C 44.858 112.072,44.782 111.964,44.449 112.170 C 44.181 112.335,43.655 112.353,43.281 112.209 C 42.677 111.976,42.670 111.907,43.221 111.597 C 43.852 111.243,44.049 106.716,43.459 106.125 C 42.707 105.374,43.193 104.270,43.967 104.971 C 44.699 105.632,44.774 105.626,45.567 104.833 C 46.715 103.685,46.610 103.200,45.216 103.200 C 42.647 103.200,41.697 100.687,43.387 98.359 C 43.929 97.612,44.682 96.577,45.059 96.060 C 46.475 94.118,44.272 92.834,42.607 94.630 C 41.683 95.628,41.600 95.650,41.600 94.902 C 41.600 94.366,41.257 94.001,40.600 93.836 C 39.799 93.635,39.600 93.335,39.600 92.330 C 39.600 91.141,39.638 91.110,40.331 91.738 C 40.800 92.162,41.759 92.400,43.000 92.400 C 46.465 92.400,47.581 95.002,45.267 97.686 C 43.747 99.451,43.506 100.249,44.267 101.010 C 45.335 102.077,46.514 101.578,47.190 99.772 C 48.372 96.616,48.948 96.071,50.879 96.280 C 52.070 96.410,53.143 96.222,54.362 95.670 C 56.272 94.806,56.777 94.867,58.600 96.187 C 60.905 97.857,60.802 97.993,60.775 93.324 C 60.757 90.245,60.642 89.267,60.378 89.926 C 60.174 90.435,59.846 90.752,59.650 90.631 C 59.454 90.510,58.868 90.741,58.347 91.145 C 57.413 91.869,57.388 91.864,56.518 90.798 L 55.635 89.716 57.218 89.242 C 58.088 88.981,58.800 88.602,58.800 88.400 C 58.800 87.867,60.460 86.400,61.063 86.400 C 61.344 86.400,61.480 86.647,61.364 86.949 M86.000 87.000 C 86.000 87.673,86.073 87.700,86.965 87.358 C 87.697 87.077,87.423 86.400,86.576 86.400 C 86.259 86.400,86.000 86.670,86.000 87.000 M65.400 90.680 C 63.488 93.393,62.847 94.541,63.937 93.300 C 64.372 92.805,64.954 92.400,65.231 92.400 C 65.507 92.400,65.621 92.288,65.484 92.151 C 65.347 92.013,65.650 91.338,66.158 90.651 C 67.425 88.936,67.703 88.399,67.324 88.405 C 67.146 88.407,66.280 89.431,65.400 90.680 M70.576 89.387 C 70.149 89.710,70.019 89.980,70.287 89.987 C 70.839 90.002,70.510 91.228,69.829 91.694 C 69.571 91.871,69.678 91.990,70.100 91.994 C 71.267 92.004,70.883 92.803,69.586 93.063 C 67.563 93.467,67.334 94.594,69.163 95.142 C 71.241 95.764,71.473 95.730,71.726 94.760 C 71.847 94.298,72.118 94.026,72.328 94.155 C 72.538 94.285,72.685 94.078,72.655 93.696 C 72.625 93.313,72.805 93.038,73.054 93.085 C 73.374 93.145,73.411 92.737,73.180 91.709 C 72.998 90.906,72.860 90.148,72.872 90.025 C 73.006 88.679,71.914 88.376,70.576 89.387 M75.200 91.200 C 75.200 92.356,75.367 92.800,75.800 92.800 C 76.233 92.800,76.400 92.356,76.400 91.200 C 76.400 90.044,76.233 89.600,75.800 89.600 C 75.367 89.600,75.200 90.044,75.200 91.200 M65.595 93.779 C 66.142 94.082,66.746 94.233,66.938 94.115 C 67.418 93.818,66.374 93.210,65.400 93.220 C 64.692 93.227,64.714 93.292,65.595 93.779 M73.854 95.080 C 73.404 95.530,73.583 96.518,74.249 97.254 C 75.048 98.137,74.704 99.200,73.618 99.200 C 73.074 99.200,72.621 98.745,72.227 97.804 C 71.859 96.922,71.444 96.485,71.101 96.617 C 70.802 96.731,69.926 96.561,69.153 96.238 C 67.823 95.683,67.686 95.702,66.574 96.611 C 65.199 97.735,64.800 97.823,64.800 97.000 C 64.800 96.267,64.423 96.256,63.496 96.960 C 62.912 97.403,62.884 97.572,63.332 97.944 C 63.630 98.191,64.021 98.260,64.201 98.097 C 64.381 97.933,64.399 98.025,64.241 98.300 C 64.082 98.575,64.154 98.800,64.400 98.800 C 64.646 98.800,64.722 99.003,64.568 99.252 C 64.398 99.528,64.505 99.628,64.844 99.509 C 65.150 99.402,65.375 99.019,65.345 98.660 C 65.257 97.614,68.199 96.882,69.513 97.623 C 70.824 98.362,71.493 100.240,70.826 101.308 C 70.559 101.734,70.522 101.972,70.743 101.835 C 70.964 101.699,71.258 101.770,71.396 101.993 C 71.534 102.217,72.065 102.400,72.575 102.400 C 73.085 102.400,73.726 102.670,74.000 103.000 C 74.403 103.485,74.390 103.600,73.935 103.600 C 73.625 103.600,73.371 103.946,73.371 104.368 C 73.371 104.959,73.524 105.055,74.033 104.782 C 74.397 104.588,74.784 104.518,74.893 104.627 C 75.003 104.736,75.049 104.415,74.997 103.913 C 74.945 103.411,74.879 102.685,74.851 102.300 C 74.821 101.888,74.476 101.600,74.014 101.600 C 73.582 101.600,73.035 101.240,72.800 100.800 C 72.416 100.083,72.496 100.000,73.572 100.000 C 75.308 100.000,75.774 98.899,74.751 97.215 C 73.877 95.779,74.256 94.650,75.316 95.530 C 75.730 95.873,76.031 95.864,76.534 95.493 C 77.109 95.069,76.985 94.988,75.655 94.913 C 74.804 94.865,73.993 94.940,73.854 95.080 M67.099 99.743 C 66.396 100.395,66.191 100.858,66.435 101.243 C 66.987 102.115,66.863 102.801,66.100 103.090 C 64.841 103.567,64.221 104.400,65.126 104.400 C 66.102 104.400,68.073 103.406,67.746 103.079 C 67.242 102.576,68.061 100.755,68.979 100.337 C 69.541 100.081,69.849 99.673,69.726 99.350 C 69.405 98.515,68.235 98.690,67.099 99.743 M56.692 101.400 C 57.591 102.170,58.524 102.800,58.764 102.800 C 59.356 102.800,59.316 103.486,58.700 103.880 C 57.516 104.638,57.058 106.107,57.831 106.672 C 58.317 107.027,58.690 107.070,58.959 106.801 C 59.481 106.279,60.923 106.278,60.600 106.800 C 60.464 107.020,60.654 107.200,61.023 107.200 C 61.523 107.200,61.632 107.429,61.452 108.100 C 61.319 108.595,61.208 109.180,61.205 109.400 C 61.202 109.620,60.221 109.809,59.025 109.821 C 57.829 109.832,56.945 109.689,57.060 109.503 C 57.498 108.795,56.286 107.961,55.174 108.206 C 54.565 108.339,53.960 108.258,53.814 108.023 C 53.671 107.791,53.748 107.600,53.986 107.600 C 54.573 107.600,55.274 105.662,54.999 104.797 C 54.877 104.414,53.966 103.790,52.974 103.411 C 51.431 102.822,51.208 102.598,51.426 101.861 C 52.093 99.609,54.366 99.410,56.692 101.400 M87.211 100.406 C 87.629 100.629,87.875 101.061,87.758 101.366 C 87.641 101.670,87.768 102.057,88.040 102.225 C 88.359 102.422,87.802 102.853,86.467 103.442 C 85.071 104.059,84.402 104.589,84.405 105.077 C 84.416 106.460,84.897 107.600,85.470 107.600 C 85.788 107.600,85.925 107.798,85.775 108.040 C 85.623 108.286,85.010 108.382,84.386 108.257 C 83.208 108.022,82.118 108.821,82.586 109.578 C 82.756 109.852,82.217 109.905,80.981 109.735 C 79.605 109.547,79.029 109.626,78.767 110.040 C 78.512 110.443,78.411 110.285,78.406 109.476 C 78.403 108.830,78.230 108.458,78.000 108.600 C 77.538 108.885,77.504 108.717,77.843 107.833 C 77.976 107.485,78.347 107.200,78.666 107.200 C 78.986 107.200,79.136 107.020,79.000 106.800 C 78.665 106.259,79.729 106.289,80.277 106.837 C 80.592 107.152,80.941 107.153,81.527 106.839 C 82.445 106.348,81.808 104.319,80.590 103.852 C 79.840 103.564,79.819 102.800,80.562 102.800 C 80.871 102.800,81.878 102.170,82.800 101.400 C 84.503 99.977,85.845 99.675,87.211 100.406 M70.000 106.000 C 70.000 106.880,70.180 107.600,70.400 107.600 C 70.620 107.600,70.800 106.880,70.800 106.000 C 70.800 105.120,70.620 104.400,70.400 104.400 C 70.180 104.400,70.000 105.120,70.000 106.000 M82.330 111.738 L 84.200 112.200 84.320 114.286 L 84.441 116.373 83.120 115.886 C 81.282 115.209,58.334 115.203,56.500 115.879 L 55.200 116.358 55.200 114.216 L 55.200 112.073 57.900 111.625 C 63.151 110.753,78.631 110.825,82.330 111.738 M53.150 114.650 C 54.216 114.863,54.400 115.076,54.400 116.097 C 54.400 117.156,54.503 117.260,55.300 117.005 C 58.197 116.077,58.800 116.213,58.800 117.793 L 58.800 119.274 56.700 119.103 C 55.545 119.009,53.294 118.686,51.697 118.384 C 49.499 117.969,48.400 117.941,47.170 118.270 L 45.546 118.703 45.818 117.052 C 46.256 114.396,48.388 113.698,53.150 114.650 M92.971 115.029 C 93.317 115.374,93.600 116.080,93.600 116.596 C 93.600 117.112,93.701 117.797,93.824 118.117 C 94.013 118.610,93.770 118.636,92.245 118.287 C 90.925 117.985,89.712 118.013,87.721 118.390 C 86.224 118.673,84.055 118.988,82.900 119.090 L 80.800 119.274 80.800 117.837 C 80.800 116.197,81.694 115.932,83.700 116.979 C 84.796 117.550,84.800 117.548,84.800 116.204 C 84.800 114.634,85.054 114.538,89.471 114.454 C 91.604 114.414,92.505 114.562,92.971 115.029 " stroke="none" fill="#154273" fill-rule="evenodd"></path><path id="path3" d="" stroke="none" fill="#40658d" fill-rule="evenodd"></path><path id="path4" d="M62.901 88.600 C 62.905 89.480,62.987 89.793,63.083 89.295 C 63.179 88.798,63.175 88.078,63.075 87.695 C 62.975 87.313,62.896 87.720,62.901 88.600 M69.709 106.000 C 69.709 106.990,69.787 107.395,69.882 106.900 C 69.978 106.405,69.978 105.595,69.882 105.100 C 69.787 104.605,69.709 105.010,69.709 106.000 M66.700 115.097 C 68.295 115.173,70.905 115.173,72.500 115.097 C 74.095 115.021,72.790 114.959,69.600 114.959 C 66.410 114.959,65.105 115.021,66.700 115.097 " stroke="none" fill="#98acc1" fill-rule="evenodd"></path></g></svg>