<?xml version="1.0" standalone="no"?>
<!DOCTYPE svg PUBLIC "-//W3C//DTD SVG 20010904//EN"
 "http://www.w3.org/TR/2001/REC-SVG-20010904/DTD/svg10.dtd">
<svg version="1.0" xmlns="http://www.w3.org/2000/svg"
 width="1664.000000pt" height="1176.000000pt" viewBox="0 0 1664.000000 1176.000000"
 preserveAspectRatio="xMidYMid meet">
<metadata>
Created by potrace 1.13, written by Peter Selinger 2001-2015
</metadata>
<g transform="translate(0.000000,1176.000000) scale(0.100000,-0.100000)"
fill="#000000" stroke="none">
<path d="M8510 8944 c-42 -4 -133 -22 -175 -34 -16 -5 -56 -14 -88 -21 -32 -7
-60 -16 -63 -21 -3 -4 -16 -8 -29 -8 -13 0 -43 -8 -67 -19 -24 -10 -59 -22
-78 -26 -19 -4 -66 -22 -104 -41 -39 -19 -73 -34 -77 -34 -4 0 -35 -16 -69
-35 -34 -19 -68 -35 -76 -35 -8 0 -37 -18 -65 -40 -28 -22 -57 -40 -64 -40 -7
0 -15 -4 -17 -9 -3 -9 -136 -111 -144 -111 -5 0 -196 -192 -251 -253 -18 -19
-33 -39 -33 -44 0 -4 -14 -22 -30 -40 -17 -18 -35 -42 -40 -55 -15 -35 -62
-112 -71 -118 -13 -9 -79 -142 -79 -160 0 -8 -8 -28 -18 -45 -25 -41 -76 -209
-99 -325 -24 -125 -24 -365 0 -463 9 -38 17 -80 17 -93 0 -14 11 -49 24 -77
13 -29 26 -69 30 -89 4 -21 11 -38 15 -38 9 0 26 -39 35 -81 3 -15 17 -37 31
-50 13 -13 25 -29 25 -34 0 -6 13 -26 30 -45 16 -19 29 -38 30 -42 2 -37 319
-318 359 -318 9 0 30 -9 46 -20 38 -26 131 -70 148 -70 7 0 22 -6 33 -14 11
-8 69 -24 130 -35 256 -49 627 -14 757 72 14 9 31 17 36 17 24 0 186 98 233
142 29 26 56 48 59 48 10 0 79 68 79 77 0 5 19 31 43 58 53 61 117 159 117
177 0 7 6 23 14 34 28 40 83 220 90 294 4 41 10 90 13 109 11 72 -17 272 -53
381 -19 58 -42 115 -50 127 -7 12 -14 29 -14 36 0 8 -13 33 -30 55 -16 23 -30
45 -30 49 0 3 -15 21 -32 38 -18 18 -55 55 -82 84 -27 28 -53 51 -58 51 -6 0
-32 20 -59 44 -56 50 -322 186 -364 186 -10 0 -32 7 -51 16 -19 9 -60 21 -92
28 l-57 11 1 80 c1 84 34 204 74 273 11 18 20 39 20 46 0 8 7 19 16 26 8 8 21
27 28 44 7 17 25 42 39 56 15 14 27 31 27 38 0 6 6 12 13 12 6 0 36 25 66 55
29 30 60 55 67 55 8 0 14 4 14 9 0 9 166 93 238 121 64 25 31 35 -114 36 -76
1 -155 0 -174 -2z m-431 -210 c-24 -25 -55 -56 -68 -68 -12 -11 -46 -51 -73
-88 -28 -38 -55 -68 -59 -68 -5 0 -9 -5 -9 -10 0 -15 -223 -230 -238 -230 -3
0 -12 -7 -21 -15 -9 -8 -36 -31 -61 -51 -25 -19 -61 -49 -80 -65 -53 -45 -129
-99 -140 -99 -6 0 -10 -4 -10 -10 0 -5 -29 -38 -64 -73 -35 -35 -73 -82 -85
-105 -12 -23 -26 -42 -31 -42 -5 0 -19 -18 -30 -39 -10 -22 -23 -41 -28 -43
-5 -1 -23 -32 -41 -68 -18 -36 -39 -76 -46 -90 -15 -28 -44 -86 -58 -114 -5
-10 -17 -34 -28 -53 -10 -18 -19 -41 -19 -51 0 -9 -14 -44 -31 -77 l-30 -60 7
105 c4 62 16 139 30 188 13 45 24 94 24 108 0 23 25 80 78 179 8 17 31 62 50
100 40 82 98 172 128 200 12 11 25 30 29 43 3 12 37 53 75 91 38 38 73 78 79
88 5 11 29 33 53 49 24 16 62 47 85 69 61 58 74 68 116 90 21 11 49 30 64 42
14 13 29 23 34 23 4 0 30 16 59 35 29 19 64 38 79 42 14 3 57 21 95 40 38 18
74 33 81 33 6 0 28 9 50 20 22 11 48 20 59 20 16 0 11 -9 -25 -46z"/>
<path d="M6740 4410 c0 -121 -1 -220 -3 -220 -1 0 -34 9 -72 20 -85 24 -249
27 -316 6 -118 -38 -181 -71 -202 -103 -4 -7 -15 -13 -24 -13 -16 0 -93 -76
-93 -92 0 -6 -8 -22 -18 -36 -11 -15 -33 -62 -50 -104 -30 -71 -32 -86 -32
-190 0 -142 16 -197 100 -348 18 -33 75 -90 89 -90 5 0 29 -13 53 -29 24 -16
86 -44 138 -62 l95 -33 215 1 c174 1 234 6 314 22 54 12 100 21 102 21 2 0 4
331 4 735 l0 735 -150 0 -150 0 0 -220z m-124 -428 c5 -5 35 -14 67 -21 l57
-12 0 -289 0 -288 -75 -7 c-89 -9 -195 1 -233 21 -15 8 -34 14 -42 14 -9 0
-23 8 -32 19 -8 10 -20 20 -24 22 -5 2 -25 34 -44 72 -33 64 -35 72 -35 170 1
97 2 105 34 162 37 65 84 115 110 115 9 1 27 7 41 15 27 16 160 21 176 7z"/>
<path d="M11105 4234 c-68 -10 -115 -26 -232 -82 l-53 -24 0 -494 0 -494 155
0 155 0 0 410 0 410 36 15 c88 36 252 0 299 -66 38 -54 45 -120 45 -455 l0
-314 151 0 150 0 -3 408 -3 408 55 17 c74 23 132 22 209 -5 57 -20 68 -29 100
-77 l36 -54 3 -349 4 -348 155 0 154 0 -4 363 c-4 367 -6 386 -45 480 -17 40
-82 117 -99 117 -7 0 -16 7 -19 15 -6 15 -71 49 -169 87 -54 21 -76 23 -225
23 -151 0 -169 -2 -209 -22 -25 -13 -52 -23 -61 -23 -9 0 -20 -4 -26 -10 -6
-6 -45 3 -109 26 -96 34 -107 35 -260 39 -88 2 -173 1 -190 -1z"/>
<path d="M5015 4198 c-49 -17 -94 -35 -100 -39 -5 -5 -24 -20 -41 -34 -18 -14
-37 -25 -42 -25 -16 0 -68 -51 -91 -90 -89 -151 -107 -222 -98 -393 5 -101 9
-115 44 -185 52 -104 57 -112 65 -112 5 0 8 -5 8 -11 0 -13 58 -69 71 -69 5 0
31 -16 58 -35 26 -19 56 -35 64 -35 9 0 33 -9 53 -21 68 -38 309 -48 399 -17
147 51 265 145 319 255 10 21 22 46 27 55 19 38 41 158 42 228 1 128 -43 273
-103 344 -83 98 -159 149 -286 192 -60 20 -92 24 -186 24 -101 0 -123 -4 -203
-32z m317 -238 c85 -41 115 -85 134 -198 13 -71 13 -102 4 -172 -16 -115 -50
-169 -134 -206 -52 -23 -68 -26 -130 -21 -88 6 -157 38 -180 81 -10 17 -23 43
-31 57 -8 14 -20 58 -27 97 -16 97 1 202 45 275 43 70 47 73 108 96 81 29 137
27 211 -9z"/>
<path d="M7660 4216 c-113 -36 -168 -59 -202 -86 -20 -17 -43 -30 -50 -30 -17
-1 -65 -40 -86 -72 -78 -115 -102 -156 -102 -173 0 -12 -4 -25 -9 -30 -34 -39
-41 -231 -11 -327 11 -34 20 -69 20 -77 0 -7 11 -26 25 -43 14 -16 25 -35 25
-42 0 -7 10 -21 21 -32 12 -10 25 -29 30 -41 5 -13 17 -23 28 -23 11 0 24 -6
28 -12 9 -15 36 -31 117 -71 109 -54 329 -58 397 -8 16 12 32 21 36 21 4 0 21
14 39 31 18 17 37 28 42 25 6 -3 13 -24 17 -46 l7 -40 134 0 134 0 -2 501 -3
502 -50 17 c-131 46 -228 63 -385 66 -114 3 -167 0 -200 -10z m261 -247 l69
-12 0 -247 c0 -282 1 -281 -88 -321 -58 -26 -188 -32 -242 -10 -36 15 -120 96
-120 116 0 7 -7 25 -15 42 -28 56 -30 144 -6 221 30 92 114 187 176 197 22 4
47 11 55 16 21 12 90 11 171 -2z"/>
<path d="M8870 4205 c-36 -14 -72 -25 -81 -25 -9 0 -24 -9 -34 -20 -10 -11
-22 -20 -26 -20 -20 0 -97 -63 -129 -105 -69 -91 -76 -100 -87 -125 -38 -85
-46 -128 -47 -240 -1 -131 18 -209 66 -272 15 -20 28 -41 28 -47 0 -5 8 -16
18 -23 9 -7 30 -30 45 -50 15 -21 33 -38 40 -38 7 0 35 -15 62 -32 110 -71
266 -105 420 -92 72 6 121 18 215 53 30 12 56 21 57 21 11 0 -2 47 -27 98 -16
34 -30 70 -30 80 0 35 -18 40 -83 24 -34 -8 -108 -16 -164 -19 -155 -7 -226
23 -295 128 -41 61 -48 88 -48 183 0 91 0 93 42 159 24 37 48 67 55 67 7 0 17
8 22 19 12 22 119 51 188 51 60 -1 218 -33 237 -49 15 -13 16 -11 65 141 11
37 21 71 21 76 0 12 -33 25 -144 57 -124 35 -291 35 -386 0z"/>
<path d="M9945 4223 c-11 -3 -24 -8 -30 -12 -5 -4 -36 -16 -67 -25 -31 -10
-62 -24 -69 -32 -6 -8 -18 -14 -25 -14 -8 0 -14 -3 -14 -7 0 -5 -21 -21 -46
-37 -42 -27 -61 -49 -122 -145 -33 -54 -43 -79 -58 -156 -24 -118 -10 -277 31
-355 62 -119 97 -161 182 -216 46 -30 87 -54 92 -54 5 0 35 -12 67 -26 54 -24
70 -27 199 -27 110 0 152 3 198 18 31 10 57 22 57 27 0 4 5 8 10 8 22 0 127
73 168 118 91 96 123 179 139 354 7 76 -23 239 -54 300 -22 42 -107 138 -159
178 -35 28 -148 80 -204 95 -53 14 -249 19 -295 8z m235 -253 c59 -23 82 -45
128 -116 l32 -51 0 -135 0 -135 -39 -60 c-53 -82 -105 -108 -216 -108 -62 0
-91 5 -127 23 -27 12 -48 27 -48 32 0 10 -7 20 -36 53 -23 27 -46 121 -46 192
0 146 60 264 154 302 68 27 134 28 198 3z"/>
<path d="M3380 4195 c0 -2 15 -37 34 -77 19 -40 40 -91 47 -113 8 -22 24 -57
36 -77 12 -20 25 -49 29 -65 4 -15 17 -44 30 -63 12 -19 25 -50 29 -68 4 -18
29 -79 56 -135 67 -137 97 -206 143 -322 7 -16 25 -54 41 -82 l30 -53 156 0
157 0 51 105 c28 59 51 109 51 113 1 4 9 25 20 47 11 22 19 46 20 53 0 7 4 20
9 30 30 61 61 131 67 152 4 14 9 27 13 30 13 11 39 67 46 100 4 19 16 51 26
70 11 19 19 40 19 47 0 7 14 35 30 61 17 27 30 54 30 60 0 6 8 31 19 54 10 24
23 57 29 73 5 17 13 38 17 48 7 16 -5 17 -164 17 -140 0 -171 -3 -171 -14 0
-8 -13 -40 -30 -71 -16 -31 -30 -63 -30 -71 0 -8 -13 -41 -30 -74 -16 -33 -30
-72 -30 -87 0 -15 -9 -41 -20 -58 -11 -16 -20 -38 -20 -48 0 -10 -13 -44 -30
-77 -16 -33 -30 -65 -31 -72 0 -7 -10 -34 -23 -61 l-22 -47 -33 72 c-18 40
-43 97 -57 126 -13 29 -24 60 -24 70 0 10 -4 22 -8 27 -4 6 -16 35 -26 65 -10
30 -31 80 -47 111 -16 31 -29 64 -29 72 0 8 -11 35 -25 58 -14 24 -25 52 -25
62 0 16 -15 17 -180 17 -99 0 -180 -2 -180 -5z"/>
</g>
</svg>
