<?xml version="1.0" standalone="no"?>
<!DOCTYPE svg PUBLIC "-//W3C//DTD SVG 20010904//EN"
 "http://www.w3.org/TR/2001/REC-SVG-20010904/DTD/svg10.dtd">
<svg version="1.0" xmlns="http://www.w3.org/2000/svg"
 width="1024.000000pt" height="1024.000000pt" viewBox="0 0 1024.000000 1024.000000"
 preserveAspectRatio="xMidYMid meet">
<metadata>
Created by potrace 1.13, written by Peter Selinger 2001-2015
</metadata>
<g transform="translate(0.000000,1024.000000) scale(0.100000,-0.100000)"
fill="#000000" stroke="none">
<path d="M1347 6533 c-2 -5 33 -174 79 -378 46 -203 138 -618 206 -922 67
-304 124 -551 125 -549 2 1 19 74 39 162 58 255 61 222 -115 1011 -83 370
-151 675 -151 678 0 8 -178 6 -183 -2z"/>
<path d="M2684 6341 c-73 -18 -172 -118 -229 -231 -121 -239 -185 -566 -185
-955 0 -353 57 -671 160 -891 138 -298 311 -374 475 -209 68 68 108 138 155
270 66 188 89 349 97 678 l6 247 -212 0 -211 0 0 -160 0 -159 148 -3 147 -3
-3 -55 c-13 -233 -82 -441 -176 -532 -157 -153 -336 18 -415 398 -86 410 -32
939 119 1172 116 181 261 166 369 -38 l34 -63 38 99 c21 54 38 108 39 118 0
36 -74 169 -127 226 -75 81 -150 111 -229 91z"/>
<path d="M4494 6341 c-73 -18 -172 -118 -230 -233 -121 -239 -184 -561 -184
-948 0 -389 65 -720 186 -951 133 -251 297 -308 449 -154 166 166 255 524 255
1026 l0 169 -210 0 -210 0 0 -160 0 -159 147 -3 147 -3 -2 -50 c-13 -239 -79
-440 -175 -535 -77 -76 -154 -78 -235 -5 -105 95 -181 309 -213 603 -24 231 3
576 61 767 71 230 188 356 302 324 48 -13 116 -81 154 -153 16 -31 32 -56 35
-56 4 0 24 45 44 101 36 94 37 104 25 138 -34 99 -138 234 -203 264 -43 21
-103 28 -143 18z"/>
<path d="M3270 5160 l0 -1132 168 4 c147 3 172 6 207 25 147 78 255 307 310
654 22 141 31 572 16 749 -30 342 -113 596 -238 731 -77 83 -105 92 -300 97
l-163 4 0 -1132z m345 781 c134 -61 212 -264 236 -612 25 -382 -31 -731 -141
-876 -54 -72 -104 -93 -217 -93 l-93 0 0 800 0 800 88 0 c63 0 98 -6 127 -19z"/>
<path d="M5420 5075 l0 -1045 50 0 50 0 2 798 3 797 126 -575 126 -575 29 0
29 0 125 572 c69 315 127 573 130 573 3 0 4 -358 2 -795 l-3 -795 50 0 51 0 0
1045 0 1045 -50 0 c-27 0 -50 -2 -50 -4 0 -3 -47 -220 -105 -483 -58 -263
-119 -541 -136 -618 -16 -77 -34 -149 -38 -160 -9 -22 -5 -38 -166 700 -64
292 -118 538 -121 548 -4 13 -16 17 -55 17 l-49 0 0 -1045z"/>
<path d="M8210 5676 l0 -215 -47 -3 -48 -3 -3 -112 -3 -112 48 -3 48 -3 6
-490 c5 -396 9 -501 21 -545 23 -82 33 -104 68 -144 25 -28 39 -36 67 -36 46
0 95 26 89 48 -2 9 -7 44 -11 77 -13 123 -12 122 -53 121 -34 -1 -39 3 -57 39
-19 38 -20 60 -20 485 l0 445 68 3 68 3 -3 112 -3 112 -67 3 -68 3 0 214 0
215 -50 0 -50 0 0 -214z"/>
<path d="M7130 5492 c-44 -23 -94 -96 -117 -170 l-18 -57 -5 95 -5 95 -47 3
-48 3 0 -1030 0 -1031 50 0 50 0 1 418 c0 352 2 411 13 377 40 -125 110 -205
180 -205 84 0 166 130 216 343 60 256 51 669 -22 912 -36 124 -95 222 -148
250 -38 20 -58 19 -100 -3z m96 -247 c34 -34 67 -112 90 -210 15 -65 19 -120
19 -290 0 -233 -12 -311 -64 -421 -83 -175 -197 -120 -258 123 -25 100 -25
486 0 593 22 93 67 192 98 214 35 24 85 20 115 -9z"/>
<path d="M6460 5482 c-44 -22 -92 -86 -119 -156 -35 -93 -35 -96 10 -165 l41
-64 33 70 c36 77 63 103 110 103 79 0 145 -148 145 -324 l0 -80 -32 31 c-45
42 -70 53 -118 53 -112 0 -191 -103 -225 -294 -27 -155 -16 -353 26 -481 42
-125 122 -207 187 -190 46 11 97 76 130 167 l31 83 0 -103 1 -103 45 3 46 3
-1 524 c0 552 -4 612 -46 741 -55 166 -157 236 -264 182z m140 -747 c50 -26
80 -75 80 -133 0 -66 -23 -183 -50 -256 -26 -68 -83 -136 -114 -136 -76 0
-135 143 -122 297 15 181 105 280 206 228z"/>
<path d="M8735 5486 c-88 -39 -163 -201 -201 -432 -26 -152 -25 -487 0 -629
20 -111 58 -239 88 -298 28 -57 94 -124 133 -137 129 -43 241 120 296 430 28
153 30 463 5 623 -31 198 -101 368 -174 424 -39 30 -105 39 -147 19z m125
-255 c89 -93 136 -359 111 -625 -14 -148 -33 -224 -74 -300 -93 -172 -208 -91
-269 189 -20 94 -17 410 5 514 34 156 100 261 164 261 17 0 39 -13 63 -39z"/>
<path d="M7533 4898 c3 -454 7 -578 20 -638 32 -160 84 -249 157 -271 33 -10
43 -9 72 8 43 25 93 100 117 177 l20 61 0 -102 1 -103 50 0 50 0 -2 713 -3
712 -47 3 -46 3 -5 -483 c-3 -404 -7 -494 -20 -553 -21 -87 -64 -173 -98 -198
-25 -18 -28 -18 -63 -2 -47 22 -82 94 -95 198 -7 46 -11 279 -11 558 l0 479
-51 0 -50 0 4 -562z"/>
<path d="M1456 5050 c-3 -8 -44 -186 -90 -395 -47 -209 -117 -521 -156 -694
-38 -173 -70 -316 -70 -318 0 -2 44 -2 97 -1 l96 3 24 105 c133 602 198 886
203 890 4 3 -8 66 -27 140 -18 74 -36 146 -38 160 -15 71 -33 124 -39 110z"/>
</g>
</svg>
